<svg id="Layer_1" data-name="Layer 1" xmlns="http://www.w3.org/2000/svg" viewBox="0 0 345.72 380.1"><defs><style>.cls-1{fill:#5dc5c3;}.cls-2{fill:#fff;}.cls-3{fill:#6354a4;}</style></defs><title>store logo</title><path class="cls-1" d="M218.43,390.61l-27-65.06A56.47,56.47,0,0,1,222,251.76L250.32,240l5.93-2.46,152.67-63.29a56.46,56.46,0,0,1,73.79,30.54l13.64,32.91" transform="translate(-187.14 -169.95)"/><path class="cls-2" d="M491.56,430.55a161.19,161.19,0,0,1-232.58.54l31.32-31a113.29,113.29,0,0,0,170.45-.74Z" transform="translate(-187.14 -169.95)"/><path class="cls-3" d="M495.49,238.08a56.17,56.17,0,0,0-19.1-3.32H274a56.17,56.17,0,0,0-18.65,3.16l-5.93,2.46a56.45,56.45,0,0,0-31.89,50.85V493.58A56.47,56.47,0,0,0,274,550.05H476.39a56.47,56.47,0,0,0,56.47-56.47V291.23A56.46,56.46,0,0,0,495.49,238.08ZM290.24,400a113.29,113.29,0,0,0,170.45-.74l30.81,31.25a161.19,161.19,0,0,1-232.58.54Z" transform="translate(-187.14 -169.95)"/></svg>