<svg id="Layer_1" data-name="Layer 1" xmlns="http://www.w3.org/2000/svg" viewBox="0 0 1000 1000"><defs><style>.cls-1{fill:#e1e1e1;}.cls-2{fill:#cccaca;}.cls-3{fill:#ffa085;}.cls-4{fill:#ececec;}.cls-5{fill:#f5f5f5;}.cls-6{fill:#375a64;}.cls-7{fill:#fafafa;}.cls-8{fill:#fff;}.cls-9{fill:#1a2e35;}.cls-10{opacity:0.6;}.cls-11{opacity:0.3;}.cls-12{fill:#ffbf9d;}.cls-13{fill:#ff9a6c;}</style></defs><path class="cls-1" d="M171.71,90c-7.89,0-13.63-6.48-13.63-17.33s5.74-17.33,13.63-17.33,13.58,6.48,13.58,17.33S179.6,90,171.71,90Zm0-3.22c5.94,0,10-5,10-14.11s-4.09-14.11-10-14.11-10,5-10,14.11S165.77,86.75,171.71,86.75Z"/><path class="cls-1" d="M139.5,90c-7.88,0-13.62-6.48-13.62-17.33s5.74-17.33,13.62-17.33,13.58,6.48,13.58,17.33S147.39,90,139.5,90Zm0-3.22c5.94,0,10-5,10-14.11s-4.09-14.11-10-14.11-10,5-10,14.11S133.57,86.75,139.5,86.75Z"/><path class="cls-1" d="M123.07,55.6v3.12h-8v31h-3.51V55.6Z"/><path class="cls-1" d="M89.83,90C82,90,76.21,83.49,76.21,72.64S82,55.31,89.83,55.31s13.58,6.48,13.58,17.33S97.72,90,89.83,90Zm0-3.22c5.94,0,10-5,10-14.11s-4.09-14.11-10-14.11-10,5-10,14.11S83.89,86.75,89.83,86.75Z"/><path class="cls-1" d="M73.4,55.6v3.12h-8v31H61.86V55.6Z"/><path class="cls-1" d="M205.24,138.3c-7.89,0-13.63-6.48-13.63-17.33s5.74-17.33,13.63-17.33,13.58,6.48,13.58,17.33S213.13,138.3,205.24,138.3Zm0-3.22c5.94,0,10-5,10-14.11s-4.09-14.11-10-14.11-10,5-10,14.11S199.3,135.08,205.24,135.08Z"/><path class="cls-1" d="M173,138.3c-7.88,0-13.62-6.48-13.62-17.33s5.74-17.33,13.62-17.33,13.58,6.48,13.58,17.33S180.92,138.3,173,138.3Zm0-3.22c5.94,0,10-5,10-14.11s-4.09-14.11-10-14.11-10,5-10,14.11S167.09,135.08,173,135.08Z"/><path class="cls-1" d="M156.6,103.94v3.11h-8v31h-3.51V103.94Z"/><path class="cls-1" d="M123.36,138.3c-7.88,0-13.63-6.48-13.63-17.33s5.75-17.33,13.63-17.33,13.58,6.48,13.58,17.33S131.25,138.3,123.36,138.3Zm0-3.22c5.94,0,10-5,10-14.11s-4.09-14.11-10-14.11-10,5-10,14.11S117.42,135.08,123.36,135.08Z"/><path class="cls-1" d="M106.93,103.94v3.11h-8v31H95.39V103.94Z"/><path class="cls-1" d="M89.36,103.94v3.11h-8v31h-3.5V103.94Z"/><path class="cls-1" d="M56.13,138.3c-7.89,0-13.63-6.48-13.63-17.33s5.74-17.33,13.63-17.33S69.71,110.12,69.71,121,64,138.3,56.13,138.3Zm0-3.22c5.94,0,10-5,10-14.11s-4.09-14.11-10-14.11-10,5-10,14.11S50.19,135.08,56.13,135.08Z"/><path class="cls-1" d="M39.69,103.94v3.11h-8v31H28.15V103.94Z"/><path class="cls-1" d="M171.7,185c-7.88,0-13.62-6.48-13.62-17.33s5.74-17.33,13.62-17.33,13.58,6.48,13.58,17.33S179.59,185,171.7,185Zm0-3.22c5.94,0,10-5,10-14.11s-4.09-14.11-10-14.11-10,5-10,14.11S165.77,181.82,171.7,181.82Z"/><path class="cls-1" d="M155.27,150.67v3.12h-8v31h-3.51V150.67Z"/><path class="cls-1" d="M137.7,150.67v3.12h-8v31h-3.5V150.67Z"/><path class="cls-1" d="M120.14,150.67v3.12h-8v31h-3.5V150.67Z"/><path class="cls-1" d="M86.91,185c-7.89,0-13.63-6.48-13.63-17.33S79,150.38,86.91,150.38s13.58,6.48,13.58,17.33S94.8,185,86.91,185Zm0-3.22c5.94,0,10-5,10-14.11s-4.09-14.11-10-14.11-10,5-10,14.11S81,181.82,86.91,181.82Z"/><path class="cls-1" d="M70.47,150.67v3.12h-8v31h-3.5V150.67Z"/><path class="cls-2" d="M745,518.67c0,.23,32.11.41,71.71.41s71.71-.18,71.71-.41-32.1-.4-71.71-.4S745,518.45,745,518.67Z"/><path class="cls-2" d="M745,531.39c0,.22,32.11.41,71.71.41s71.71-.19,71.71-.41-32.1-.41-71.71-.41S745,531.16,745,531.39Z"/><path class="cls-2" d="M796.14,544.1a4.3,4.3,0,0,0,.94.08l2.69.08,9.89.13,32.64.12,32.64-.12,9.9-.13,2.69-.08a4.25,4.25,0,0,0,.93-.08,3.79,3.79,0,0,0-.93-.09l-2.69-.07-9.9-.13-32.64-.12-32.64.12-9.89.13-2.69.07A3.84,3.84,0,0,0,796.14,544.1Z"/><path class="cls-2" d="M731.75,577.23c0-.33-1-.6-2.31-.6s-2.3.27-2.3.6,1,.6,2.3.6S731.75,577.56,731.75,577.23Z"/><path class="cls-2" d="M741,577.23c0-.33-1-.6-2.31-.6s-2.3.27-2.3.6,1,.6,2.3.6S741,577.56,741,577.23Z"/><path class="cls-2" d="M750.17,577.23c0-.33-1-.6-2.3-.6s-2.31.27-2.31.6,1,.6,2.31.6S750.17,577.56,750.17,577.23Z"/><path class="cls-2" d="M759.38,577.23c0-.33-1-.6-2.3-.6s-2.31.27-2.31.6,1,.6,2.31.6S759.38,577.56,759.38,577.23Z"/><path class="cls-2" d="M768.59,577.23c0-.33-1-.6-2.3-.6s-2.3.27-2.3.6,1,.6,2.3.6S768.59,577.56,768.59,577.23Z"/><path class="cls-2" d="M777.8,577.23c0-.33-1-.6-2.3-.6s-2.3.27-2.3.6,1,.6,2.3.6S777.8,577.56,777.8,577.23Z"/><path class="cls-2" d="M787,577.23c0-.33-1-.6-2.31-.6s-2.3.27-2.3.6,1,.6,2.3.6S787,577.56,787,577.23Z"/><path class="cls-2" d="M796.23,577.23c0-.33-1-.6-2.3-.6s-2.31.27-2.31.6,1,.6,2.31.6S796.23,577.56,796.23,577.23Z"/><path class="cls-2" d="M805.44,577.23c0-.33-1-.6-2.3-.6s-2.31.27-2.31.6,1,.6,2.31.6S805.44,577.56,805.44,577.23Z"/><path class="cls-2" d="M814.65,577.23c0-.33-1-.6-2.3-.6s-2.3.27-2.3.6,1,.6,2.3.6S814.65,577.56,814.65,577.23Z"/><path class="cls-2" d="M823.86,577.23c0-.33-1-.6-2.3-.6s-2.3.27-2.3.6,1,.6,2.3.6S823.86,577.56,823.86,577.23Z"/><path class="cls-2" d="M833.08,577.23c0-.33-1-.6-2.31-.6s-2.3.27-2.3.6,1,.6,2.3.6S833.08,577.56,833.08,577.23Z"/><path class="cls-2" d="M842.29,577.23c0-.33-1-.6-2.31-.6s-2.3.27-2.3.6,1,.6,2.3.6S842.29,577.56,842.29,577.23Z"/><path class="cls-2" d="M851.5,577.23c0-.33-1-.6-2.3-.6s-2.31.27-2.31.6,1,.6,2.31.6S851.5,577.56,851.5,577.23Z"/><path class="cls-2" d="M860.71,577.23c0-.33-1-.6-2.3-.6s-2.3.27-2.3.6,1,.6,2.3.6S860.71,577.56,860.71,577.23Z"/><path class="cls-2" d="M869.92,577.23c0-.33-1-.6-2.3-.6s-2.3.27-2.3.6,1,.6,2.3.6S869.92,577.56,869.92,577.23Z"/><path class="cls-2" d="M879.13,577.23c0-.33-1-.6-2.3-.6s-2.3.27-2.3.6,1,.6,2.3.6S879.13,577.56,879.13,577.23Z"/><path class="cls-2" d="M888.35,577.23c0-.33-1-.6-2.31-.6s-2.3.27-2.3.6,1,.6,2.3.6S888.35,577.56,888.35,577.23Z"/><path class="cls-2" d="M897.56,577.23c0-.33-1-.6-2.3-.6s-2.31.27-2.31.6,1,.6,2.31.6S897.56,577.56,897.56,577.23Z"/><path class="cls-2" d="M906.77,577.23c0-.33-1-.6-2.3-.6s-2.31.27-2.31.6,1,.6,2.31.6S906.77,577.56,906.77,577.23Z"/><path class="cls-2" d="M916,577.23c0-.33-1-.6-2.3-.6s-2.3.27-2.3.6,1,.6,2.3.6S916,577.56,916,577.23Z"/><path class="cls-2" d="M925.19,577.23c0-.33-1-.6-2.3-.6s-2.3.27-2.3.6,1,.6,2.3.6S925.19,577.56,925.19,577.23Z"/><path class="cls-2" d="M934.41,577.23c0-.33-1-.6-2.31-.6s-2.3.27-2.3.6,1,.6,2.3.6S934.41,577.56,934.41,577.23Z"/><path class="cls-2" d="M943.62,577.23c0-.33-1-.6-2.31-.6s-2.3.27-2.3.6,1,.6,2.3.6S943.62,577.56,943.62,577.23Z"/><path class="cls-2" d="M952.83,577.23c0-.33-1-.6-2.3-.6s-2.31.27-2.31.6,1,.6,2.31.6S952.83,577.56,952.83,577.23Z"/><path class="cls-2" d="M962,577.23c0-.33-1-.6-2.3-.6s-2.3.27-2.3.6,1,.6,2.3.6S962,577.56,962,577.23Z"/><path class="cls-2" d="M971.25,577.23c0-.33-1-.6-2.3-.6s-2.3.27-2.3.6,1,.6,2.3.6S971.25,577.56,971.25,577.23Z"/><path class="cls-2" d="M980.47,577.23c0-.33-1-.6-2.31-.6s-2.3.27-2.3.6,1,.6,2.3.6S980.47,577.56,980.47,577.23Z"/><path class="cls-2" d="M985.48,573c-.33,0-.6,1-.6,2.31a5.74,5.74,0,0,0,.26,1.89l.34-.34c-.26.1-.41.22-.41.34s.15.25.41.34l.19.07.15-.41a5.74,5.74,0,0,0,.26-1.89C986.08,574.07,985.81,573,985.48,573Z"/><path class="cls-2" d="M985.48,563.82c-.33,0-.6,1-.6,2.31s.27,2.3.6,2.3.6-1,.6-2.3S985.81,563.82,985.48,563.82Z"/><path class="cls-2" d="M985.48,554.61c-.33,0-.6,1-.6,2.3s.27,2.31.6,2.31.6-1,.6-2.31S985.81,554.61,985.48,554.61Z"/><path class="cls-2" d="M985.48,545.4c-.33,0-.6,1-.6,2.3s.27,2.3.6,2.3.6-1,.6-2.3S985.81,545.4,985.48,545.4Z"/><path class="cls-2" d="M985.48,536.19c-.33,0-.6,1-.6,2.3s.27,2.3.6,2.3.6-1,.6-2.3S985.81,536.19,985.48,536.19Z"/><path class="cls-2" d="M985.48,527c-.33,0-.6,1-.6,2.3s.27,2.3.6,2.3.6-1,.6-2.3S985.81,527,985.48,527Z"/><path class="cls-2" d="M985.48,517.76c-.33,0-.6,1-.6,2.31s.27,2.3.6,2.3.6-1,.6-2.3S985.81,517.76,985.48,517.76Z"/><path class="cls-2" d="M985.48,508.55c-.33,0-.6,1-.6,2.3s.27,2.31.6,2.31.6-1,.6-2.31S985.81,508.55,985.48,508.55Z"/><path class="cls-2" d="M985.48,499.34c-.33,0-.6,1-.6,2.3s.27,2.31.6,2.31.6-1,.6-2.31S985.81,499.34,985.48,499.34Z"/><path class="cls-2" d="M985.48,490.13c-.33,0-.6,1-.6,2.3s.27,2.3.6,2.3.6-1,.6-2.3S985.81,490.13,985.48,490.13Z"/><path class="cls-2" d="M985.48,480.92c-.33,0-.6,1-.6,2.3s.27,2.3.6,2.3.6-1,.6-2.3S985.81,480.92,985.48,480.92Z"/><path class="cls-2" d="M983.47,473.71c0,.3.88.56,2,.59l-.6-.59v.3c0,1.27.27,2.3.6,2.3s.6-1,.6-2.3c0-.1,0-.19,0-.3v-.61l-.58,0C984.35,473.15,983.47,473.41,983.47,473.71Z"/><path class="cls-2" d="M974.26,473.71c0,.33,1,.6,2.3.6s2.31-.27,2.31-.6-1-.6-2.31-.6S974.26,473.38,974.26,473.71Z"/><path class="cls-2" d="M965.05,473.71c0,.33,1,.6,2.3.6s2.31-.27,2.31-.6-1-.6-2.31-.6S965.05,473.38,965.05,473.71Z"/><path class="cls-2" d="M955.84,473.71c0,.33,1,.6,2.3.6s2.3-.27,2.3-.6-1-.6-2.3-.6S955.84,473.38,955.84,473.71Z"/><path class="cls-2" d="M946.63,473.71c0,.33,1,.6,2.3.6s2.3-.27,2.3-.6-1-.6-2.3-.6S946.63,473.38,946.63,473.71Z"/><path class="cls-2" d="M937.41,473.71c0,.33,1,.6,2.31.6s2.3-.27,2.3-.6-1-.6-2.3-.6S937.41,473.38,937.41,473.71Z"/><path class="cls-2" d="M928.2,473.71c0,.33,1,.6,2.31.6s2.3-.27,2.3-.6-1-.6-2.3-.6S928.2,473.38,928.2,473.71Z"/><path class="cls-2" d="M919,473.71c0,.33,1,.6,2.3.6s2.31-.27,2.31-.6-1-.6-2.31-.6S919,473.38,919,473.71Z"/><path class="cls-2" d="M909.78,473.71c0,.33,1,.6,2.3.6s2.3-.27,2.3-.6-1-.6-2.3-.6S909.78,473.38,909.78,473.71Z"/><path class="cls-2" d="M900.57,473.71c0,.33,1,.6,2.3.6s2.3-.27,2.3-.6-1-.6-2.3-.6S900.57,473.38,900.57,473.71Z"/><path class="cls-2" d="M891.36,473.71c0,.33,1,.6,2.3.6s2.3-.27,2.3-.6-1-.6-2.3-.6S891.36,473.38,891.36,473.71Z"/><path class="cls-2" d="M882.14,473.71c0,.33,1,.6,2.31.6s2.3-.27,2.3-.6-1-.6-2.3-.6S882.14,473.38,882.14,473.71Z"/><path class="cls-2" d="M872.93,473.71c0,.33,1,.6,2.3.6s2.31-.27,2.31-.6-1-.6-2.31-.6S872.93,473.38,872.93,473.71Z"/><path class="cls-2" d="M863.72,473.71c0,.33,1,.6,2.3.6s2.31-.27,2.31-.6-1-.6-2.31-.6S863.72,473.38,863.72,473.71Z"/><path class="cls-2" d="M854.51,473.71c0,.33,1,.6,2.3.6s2.3-.27,2.3-.6-1-.6-2.3-.6S854.51,473.38,854.51,473.71Z"/><path class="cls-2" d="M845.3,473.71c0,.33,1,.6,2.3.6s2.3-.27,2.3-.6-1-.6-2.3-.6S845.3,473.38,845.3,473.71Z"/><path class="cls-2" d="M836.08,473.71c0,.33,1,.6,2.31.6s2.3-.27,2.3-.6-1-.6-2.3-.6S836.08,473.38,836.08,473.71Z"/><path class="cls-2" d="M826.87,473.71c0,.33,1,.6,2.31.6s2.3-.27,2.3-.6-1-.6-2.3-.6S826.87,473.38,826.87,473.71Z"/><path class="cls-2" d="M817.66,473.71c0,.33,1,.6,2.3.6s2.31-.27,2.31-.6-1-.6-2.31-.6S817.66,473.38,817.66,473.71Z"/><path class="cls-2" d="M808.45,473.71c0,.33,1,.6,2.3.6s2.3-.27,2.3-.6-1-.6-2.3-.6S808.45,473.38,808.45,473.71Z"/><path class="cls-2" d="M799.24,473.71c0,.33,1,.6,2.3.6s2.3-.27,2.3-.6-1-.6-2.3-.6S799.24,473.38,799.24,473.71Z"/><path class="cls-2" d="M790,473.71c0,.33,1,.6,2.31.6s2.3-.27,2.3-.6-1-.6-2.3-.6S790,473.38,790,473.71Z"/><path class="cls-2" d="M780.81,473.71c0,.33,1,.6,2.31.6s2.3-.27,2.3-.6-1-.6-2.3-.6S780.81,473.38,780.81,473.71Z"/><path class="cls-2" d="M771.6,473.71c0,.33,1,.6,2.3.6s2.31-.27,2.31-.6-1-.6-2.31-.6S771.6,473.38,771.6,473.71Z"/><path class="cls-2" d="M762.39,473.71c0,.33,1,.6,2.3.6s2.31-.27,2.31-.6-1-.6-2.31-.6S762.39,473.38,762.39,473.71Z"/><path class="cls-2" d="M753.18,473.71c0,.33,1,.6,2.3.6s2.3-.27,2.3-.6-1-.6-2.3-.6S753.18,473.38,753.18,473.71Z"/><path class="cls-2" d="M744,473.71c0,.33,1,.6,2.3.6s2.3-.27,2.3-.6-1-.6-2.3-.6S744,473.38,744,473.71Z"/><path class="cls-2" d="M734.75,473.71c0,.33,1,.6,2.31.6s2.3-.27,2.3-.6-1-.6-2.3-.6S734.75,473.38,734.75,473.71Z"/><path class="cls-2" d="M727.14,475.31c.27,0,.49-.67.57-1.6l-.57.57c.22,0,.46,0,.7,0,1.28,0,2.31-.27,2.31-.6s-1-.6-2.31-.6c-.24,0-.48,0-.7,0l-.61.05,0,.52C726.65,474.64,726.87,475.31,727.14,475.31Z"/><path class="cls-2" d="M727.14,484.52c.33,0,.6-1,.6-2.3s-.27-2.31-.6-2.31-.6,1-.6,2.31S726.81,484.52,727.14,484.52Z"/><path class="cls-2" d="M727.14,493.73c.33,0,.6-1,.6-2.3s-.27-2.3-.6-2.3-.6,1-.6,2.3S726.81,493.73,727.14,493.73Z"/><path class="cls-2" d="M727.14,502.94c.33,0,.6-1,.6-2.3s-.27-2.3-.6-2.3-.6,1-.6,2.3S726.81,502.94,727.14,502.94Z"/><path class="cls-2" d="M727.14,512.15c.33,0,.6-1,.6-2.3s-.27-2.3-.6-2.3-.6,1-.6,2.3S726.81,512.15,727.14,512.15Z"/><path class="cls-2" d="M727.14,521.37c.33,0,.6-1,.6-2.31s-.27-2.3-.6-2.3-.6,1-.6,2.3S726.81,521.37,727.14,521.37Z"/><path class="cls-2" d="M727.14,530.58c.33,0,.6-1,.6-2.3s-.27-2.31-.6-2.31-.6,1-.6,2.31S726.81,530.58,727.14,530.58Z"/><path class="cls-2" d="M727.14,539.79c.33,0,.6-1,.6-2.3s-.27-2.31-.6-2.31-.6,1-.6,2.31S726.81,539.79,727.14,539.79Z"/><path class="cls-2" d="M727.14,549c.33,0,.6-1,.6-2.3s-.27-2.3-.6-2.3-.6,1-.6,2.3S726.81,549,727.14,549Z"/><path class="cls-2" d="M727.14,558.21c.33,0,.6-1,.6-2.3s-.27-2.3-.6-2.3-.6,1-.6,2.3S726.81,558.21,727.14,558.21Z"/><path class="cls-2" d="M727.14,567.43c.33,0,.6-1,.6-2.31s-.27-2.3-.6-2.3-.6,1-.6,2.3S726.81,567.43,727.14,567.43Z"/><path class="cls-2" d="M727.14,576.64c.33,0,.6-1,.6-2.31s-.27-2.3-.6-2.3-.6,1-.6,2.3S726.81,576.64,727.14,576.64Z"/><path class="cls-2" d="M900.09,559c0-.33-1-.6-2.3-.6,1.19,1.2.33.33.59.6h0v-.44c0-.11,0-.25,0-.43a6.05,6.05,0,0,0-.13-.73c-.11-.42-.26-.68-.42-.68s-.32.26-.43.68a6.05,6.05,0,0,0-.13.73c0,.18,0,.32,0,.43a1.93,1.93,0,0,0,0,.23V559h0l.6.6C899.06,559.63,900.09,559.36,900.09,559Z"/><path class="cls-2" d="M908.69,559c0-.33-1-.6-2.15-.6s-2.15.27-2.15.6,1,.6,2.15.6S908.69,559.36,908.69,559Z"/><path class="cls-2" d="M917.29,559c0-.33-1-.6-2.15-.6s-2.15.27-2.15.6,1,.6,2.15.6S917.29,559.36,917.29,559Z"/><path class="cls-2" d="M925.89,559c0-.33-1-.6-2.15-.6s-2.15.27-2.15.6,1,.6,2.15.6S925.89,559.36,925.89,559Z"/><path class="cls-2" d="M934.5,559c0-.33-1-.6-2.16-.6s-2.15.27-2.15.6,1,.6,2.15.6S934.5,559.36,934.5,559Z"/><path class="cls-2" d="M943.1,559c0-.33-1-.6-2.15-.6s-2.15.27-2.15.6,1,.6,2.15.6S943.1,559.36,943.1,559Z"/><path class="cls-2" d="M951.7,559c0-.33-1-.6-2.15-.6s-2.15.27-2.15.6,1,.6,2.15.6S951.7,559.36,951.7,559Z"/><path class="cls-2" d="M960.3,559c0-.33-1-.6-2.15-.6s-2.15.27-2.15.6,1,.6,2.15.6S960.3,559.36,960.3,559Z"/><path class="cls-2" d="M966.9,556.72c-.33,0-.6,1-.6,2.31,1.2-1.2.34-.33.6-.6h-.46l-.43,0c-.28,0-.53.08-.73.13-.42.11-.68.26-.68.43s.26.31.68.42a4.19,4.19,0,0,0,.73.13l.43,0h.46l.6-.6C967.5,557.76,967.24,556.72,966.9,556.72Z"/><path class="cls-2" d="M966.9,547.45c-.33,0-.6,1-.6,2.32s.27,2.32.6,2.32.6-1,.6-2.32S967.24,547.45,966.9,547.45Z"/><path class="cls-2" d="M966.9,538.18c-.33,0-.6,1-.6,2.32s.27,2.32.6,2.32.6-1,.6-2.32S967.24,538.18,966.9,538.18Z"/><path class="cls-2" d="M966.9,528.91c-.33,0-.6,1-.6,2.32s.27,2.32.6,2.32.6-1,.6-2.32S967.24,528.91,966.9,528.91Z"/><path class="cls-2" d="M966.9,519.64c-.33,0-.6,1-.6,2.32s.27,2.31.6,2.31.6-1,.6-2.31S967.24,519.64,966.9,519.64Z"/><path class="cls-2" d="M966.9,510.37c-.33,0-.6,1-.6,2.31s.27,2.32.6,2.32.6-1,.6-2.32S967.24,510.37,966.9,510.37Z"/><path class="cls-2" d="M966.9,501.09c-.33,0-.6,1-.6,2.32s.27,2.32.6,2.32.6-1,.6-2.32S967.24,501.09,966.9,501.09Z"/><path class="cls-2" d="M964.6,494.16c0,.33,1,.6,2.3.6-1.19-1.2-.33-.34-.6-.6h0v.22a1.93,1.93,0,0,0,0,.23c0,.12,0,.26,0,.43a5.41,5.41,0,0,0,.13.73c.11.42.26.68.42.68s.32-.26.43-.68a5.41,5.41,0,0,0,.13-.73c0-.17,0-.31,0-.43v-.45h0c-.26-.27.6.59-.6-.6C965.63,493.56,964.6,493.82,964.6,494.16Z"/><path class="cls-2" d="M956,494.16c0,.33,1,.6,2.15.6s2.15-.27,2.15-.6-1-.6-2.15-.6S956,493.82,956,494.16Z"/><path class="cls-2" d="M947.4,494.16c0,.33,1,.6,2.15.6s2.15-.27,2.15-.6-1-.6-2.15-.6S947.4,493.82,947.4,494.16Z"/><path class="cls-2" d="M938.8,494.16c0,.33,1,.6,2.15.6s2.15-.27,2.15-.6-1-.6-2.15-.6S938.8,493.82,938.8,494.16Z"/><path class="cls-2" d="M930.19,494.16c0,.33,1,.6,2.15.6s2.16-.27,2.16-.6-1-.6-2.16-.6S930.19,493.82,930.19,494.16Z"/><path class="cls-2" d="M921.59,494.16c0,.33,1,.6,2.15.6s2.15-.27,2.15-.6-1-.6-2.15-.6S921.59,493.82,921.59,494.16Z"/><path class="cls-2" d="M913,494.16c0,.33,1,.6,2.15.6s2.15-.27,2.15-.6-1-.6-2.15-.6S913,493.82,913,494.16Z"/><path class="cls-2" d="M904.39,494.16c0,.33,1,.6,2.15.6s2.15-.27,2.15-.6-1-.6-2.15-.6S904.39,493.82,904.39,494.16Z"/><path class="cls-2" d="M897.79,496.46c.33,0,.59-1,.59-2.3-1.19,1.19-.33.33-.59.6h.46l.43,0a5.41,5.41,0,0,0,.73-.13c.42-.11.68-.26.68-.42s-.26-.32-.68-.43a5.41,5.41,0,0,0-.73-.13l-.43,0h-.46c-.27.26.59-.6-.6.6C897.19,495.43,897.45,496.46,897.79,496.46Z"/><path class="cls-2" d="M897.79,505.73c.33,0,.59-1,.59-2.32s-.26-2.32-.59-2.32-.6,1-.6,2.32S897.45,505.73,897.79,505.73Z"/><path class="cls-2" d="M897.79,515c.33,0,.59-1,.59-2.32s-.26-2.31-.59-2.31-.6,1-.6,2.31S897.45,515,897.79,515Z"/><path class="cls-2" d="M897.79,524.27c.33,0,.59-1,.59-2.31s-.26-2.32-.59-2.32-.6,1-.6,2.32S897.45,524.27,897.79,524.27Z"/><path class="cls-2" d="M897.79,533.55c.33,0,.59-1,.59-2.32s-.26-2.32-.59-2.32-.6,1-.6,2.32S897.45,533.55,897.79,533.55Z"/><path class="cls-2" d="M897.79,542.82c.33,0,.59-1,.59-2.32s-.26-2.32-.59-2.32-.6,1-.6,2.32S897.45,542.82,897.79,542.82Z"/><path class="cls-2" d="M897.79,552.09c.33,0,.59-1,.59-2.32s-.26-2.32-.59-2.32-.6,1-.6,2.32S897.45,552.09,897.79,552.09Z"/><rect class="cls-2" x="965.26" y="557.38" width="3.3" height="3.3" transform="translate(1933.81 1118.05) rotate(-180)"/><rect class="cls-2" x="965.26" y="492.51" width="3.3" height="3.3" transform="translate(1933.81 988.31) rotate(-180)"/><rect class="cls-2" x="896.14" y="492.51" width="3.3" height="3.3" transform="translate(1795.57 988.31) rotate(-180)"/><rect class="cls-2" x="896.14" y="555.73" width="3.3" height="3.3" transform="translate(1795.57 1114.76) rotate(-180)"/><rect class="cls-2" x="932.34" y="557.38" width="3.3" height="3.3" transform="translate(1867.99 1118.05) rotate(-180)"/><rect class="cls-2" x="930.7" y="492.51" width="3.3" height="3.3" transform="translate(1864.69 988.31) rotate(-180)"/><rect class="cls-2" x="965.26" y="526.59" width="3.3" height="3.3" transform="translate(1933.81 1056.48) rotate(-180)"/><rect class="cls-2" x="897.79" y="524.94" width="3.3" height="3.3" transform="translate(1798.87 1053.18) rotate(-180)"/><path class="cls-3" d="M477.38,763.66H332.29V647H477.38Zm-144.09-1H476.38V648H333.29Z"/><path class="cls-3" d="M331.52,664.69c0,.39,18.49.71,63.65.71s81.78-.32,81.78-.71-36.61-.72-81.78-.72S331.52,664.29,331.52,664.69Z"/><path class="cls-3" d="M463.64,656.25a2.2,2.2,0,1,0,2.18-1.92A2.07,2.07,0,0,0,463.64,656.25Z"/><path class="cls-3" d="M455.68,656.25a2.2,2.2,0,1,0,2.18-1.92A2.07,2.07,0,0,0,455.68,656.25Z"/><path class="cls-3" d="M447.72,656.25a2.2,2.2,0,1,0,2.18-1.92A2.07,2.07,0,0,0,447.72,656.25Z"/><path class="cls-3" d="M384.26,730a9.16,9.16,0,0,0-1.43-1.63l-4.16-4.18c-3.54-3.5-8.48-8.28-14-13.52l-.13-.12v.71c5.53-5.14,10.5-9.83,14.06-13.26,1.66-1.62,3.05-3,4.19-4.09a9.22,9.22,0,0,0,1.44-1.6,9.1,9.1,0,0,0-1.7,1.32l-4.39,3.87c-3.68,3.3-8.72,7.91-14.26,13.05l-.38.35.38.35.12.12c5.5,5.24,10.51,10,14.17,13.32l4.37,4A10,10,0,0,0,384.26,730Z"/><path class="cls-3" d="M427,692.34a9.6,9.6,0,0,0,1.43,1.63q1.69,1.69,4.16,4.18c3.54,3.49,8.48,8.28,14,13.52l.13.12v-.71c-5.53,5.14-10.5,9.83-14.06,13.26l-4.19,4.09A9.22,9.22,0,0,0,427,730a9.1,9.1,0,0,0,1.7-1.32l4.39-3.87c3.68-3.3,8.72-7.91,14.26-13.05l.38-.35-.38-.36-.12-.12c-5.49-5.24-10.51-9.94-14.17-13.31l-4.37-4A8.64,8.64,0,0,0,427,692.34Z"/><path class="cls-3" d="M416,738.91c.25-.09-4.23-12.7-10-28.16s-10.67-27.91-10.92-27.81,4.23,12.7,10,28.16S415.77,739,416,738.91Z"/><path class="cls-4" d="M816.61,790.71c-9.21-4.75-20.05-5.37-30.28-3.68-5.49.91-11.22,2.55-15,6.68s-4.45,11.39-.16,14.94c2.56,2.11,6.12,2.43,9.44,2.39,8-.09,16.89-1.5,23.28,3.31,3.65,2.75,6.08,7.32,10.44,8.67s9.09-1.2,11.35-5,2.34-8.66,1.28-13A19.86,19.86,0,0,0,816.61,790.71Z"/><path class="cls-4" d="M837.72,750c-5.64,8-16.58,5.38-21.66.47s-7.22-12-9.17-18.81c-4.46-15.51-9-31.77-5.65-47.56,1-4.72,2.76-9.43,6.08-12.93s8.42-5.59,13.08-4.36c5.52,1.46,9,6.87,11.43,12A113.25,113.25,0,0,1,843,727.45c0,7.83-.89,16-5.31,22.52"/><path class="cls-4" d="M853.18,761.52c-6.11-7.26-7.27-17.85-4.55-26.94s8.87-16.83,16-23.14a85.89,85.89,0,0,1,28.57-16.86c4.14-1.45,8.49-2.6,12.85-2.18s8.75,2.64,10.79,6.52c3,5.73.12,12.69-3,18.36A217.11,217.11,0,0,1,895,745.86c-5.63,7.25-12.07,14.4-20.64,17.68s-17.48,2.89-22-3"/><path class="cls-1" d="M838.1,871.33a17,17,0,0,1-.51-3.66c-.26-2.66-.59-6-1-10a145,145,0,0,0-2.25-14.63,113.43,113.43,0,0,0-5.31-17.27,64,64,0,0,0-8.82-15.63,33.17,33.17,0,0,0-11.15-9.27A31.19,31.19,0,0,0,799.7,798a16.79,16.79,0,0,1-3.64-.53,17.34,17.34,0,0,1,3.7-.05,28.63,28.63,0,0,1,9.79,2.54,32.91,32.91,0,0,1,11.76,9.35,62.1,62.1,0,0,1,9.14,16,106.09,106.09,0,0,1,5.29,17.55,124.45,124.45,0,0,1,1.94,14.82c.32,4.23.44,7.66.5,10A17.53,17.53,0,0,1,838.1,871.33Z"/><path class="cls-1" d="M837.41,863.65a7.78,7.78,0,0,1-.1-1.7c0-1.27,0-2.88,0-4.85,0-4.21,0-10.3-.22-17.82-.37-15-1.67-31.24-4.17-54.06-2.37-21.47-5.55-46.45-8.91-62.69-.71-3.69-1.44-7-2.12-9.93s-1.21-5.43-1.74-7.46-.84-3.48-1.14-4.72a7.13,7.13,0,0,1-.29-1.67,6.79,6.79,0,0,1,.58,1.59c.37,1.22.84,2.76,1.41,4.65s1.27,4.51,2,7.42,1.56,6.21,2.35,9.9a551.58,551.58,0,0,1,9.36,58.17c2.51,22.87,3.64,43.7,3.74,58.78.09,7.54-.07,13.65-.27,17.86-.12,2-.22,3.57-.29,4.85A7.58,7.58,0,0,1,837.41,863.65Z"/><path class="cls-1" d="M837.31,823.48a32.24,32.24,0,0,1,0-5.07,137.91,137.91,0,0,1,1.55-13.73,181.36,181.36,0,0,1,4.46-20A164.17,164.17,0,0,1,851.73,761c6.93-16.46,16.36-29.91,24.56-38.25a63.5,63.5,0,0,1,5.77-5.37c.89-.75,1.67-1.49,2.47-2.09l2.24-1.54A30.94,30.94,0,0,1,891,711c.24.33-6,4-14,12.47S860,745.3,853.11,761.62a186.44,186.44,0,0,0-8.41,23.45,203.21,203.21,0,0,0-4.75,19.8c-1.05,5.7-1.65,10.36-2,13.59A33.35,33.35,0,0,1,837.31,823.48Z"/><polygon class="cls-1" points="876.14 894.34 872.11 949.49 801.27 949.49 797.24 894.34 876.14 894.34"/><rect class="cls-1" x="788.79" y="872.6" width="94.19" height="21.74"/><polygon class="cls-4" points="882.98 947.38 882.98 953.4 878.55 953.4 790.35 953.4 790.35 947.38 882.98 947.38"/><polygon class="cls-1" points="874.22 964.01 878.55 953.4 793.72 953.4 798.78 964.01 874.22 964.01"/><path class="cls-5" d="M798.56,912.36s.09.19.33.51l1.06,1.4,4.12,5.29.19.23.17-.25c2.6-3.58,6.06-8.38,10.14-14H814l10,14.14.32.44.35-.42,11.83-14.08h-.68l.65.82c3.68,4.6,7.23,9.05,10.59,13.27l.35.44.33-.46c3.59-5.09,6.95-9.84,10-14.13l-.59,0c4.93,5.6,9.1,10.36,12.3,14l.22.25.17-.28,3.85-6.47,1-1.72a2.6,2.6,0,0,0,.3-.62,2.83,2.83,0,0,0-.41.55l-1.1,1.66-4,6.35.39,0-12.11-14.19-.3-.36-.28.39c-3.06,4.28-6.45,9-10.07,14.07l.67,0-10.56-13.29-.65-.82-.33-.42-.35.41L824,919.14l.67,0-10.09-14.06-.29-.42-.29.42-9.92,14.17h.36l-4.3-5.15L799,912.79A3,3,0,0,0,798.56,912.36Z"/><path class="cls-5" d="M796.26,894c0,.24,17.75.44,39.64.44s39.65-.2,39.65-.44-17.75-.44-39.65-.44S796.26,893.73,796.26,894Z"/><path class="cls-5" d="M792.68,954c0,.24,19.29.44,43.08.44s43.09-.2,43.09-.44-19.29-.45-43.09-.45S792.68,953.75,792.68,954Z"/><path class="cls-1" d="M352.09,600.13s0-.75,0-2.15,0-3.49.05-6.18c0-5.43.06-13.34.1-23.41.06-20.16.13-49,.22-83.69l-.41.41,141.65.08h0l-.5-.49c0,41.73,0,81.13.06,115.43l.44-.44-102.3.22-29,.12-7.69.05-2,0c-.45,0-.69,0-.69,0s.2,0,.64,0l1.94,0,7.61.05,28.89.12,102.59.22h.44v-.44c0-34.3,0-73.7.05-115.43v-.5h-.51l-141.65.09h-.41v.41c.08,34.83.16,63.73.21,83.95,0,10,.08,17.91.1,23.32,0,2.65,0,4.69.05,6.1S352.09,600.13,352.09,600.13Z"/><path class="cls-1" d="M351,501.82c0,.28,32,.5,71.41.5s71.43-.22,71.43-.5-32-.49-71.43-.49S351,501.55,351,501.82Z"/><path class="cls-1" d="M482.19,493.4a1.91,1.91,0,1,0,1.91-1.91A1.92,1.92,0,0,0,482.19,493.4Z"/><path class="cls-1" d="M475.24,493.4a1.91,1.91,0,1,0,1.91-1.91A1.92,1.92,0,0,0,475.24,493.4Z"/><path class="cls-1" d="M468.29,493.4a1.91,1.91,0,1,0,1.91-1.91A1.91,1.91,0,0,0,468.29,493.4Z"/><path class="cls-1" d="M450.25,535.19h12.48v1.49c-3,.33-3.43.57-3.43,3.92v5.77h10.9V540.6c0-3.35-.32-3.63-3.39-3.92v-1.49h12.43v1.49c-3.07.25-3.43.57-3.43,3.92v15.46c0,3.36.45,3.56,3.43,3.88v1.49H466.81v-1.49c3-.32,3.39-.52,3.39-3.88v-7.59H459.3v7.59c0,3.36.24,3.48,3.43,3.88v1.49H450.25v-1.49c3.11-.28,3.44-.52,3.44-3.88V540.6c0-3.35-.29-3.59-3.44-3.92Z"/><path class="cls-1" d="M423,542.05c.2-2.62.37-6.17.41-7.87h1.17a2.65,2.65,0,0,0,2.34,1H443c1.21,0,1.69-.08,2.3-1h1.21c.08,1.94.36,5.09.65,8h-1.54a15.42,15.42,0,0,0-1.65-3.84c-.77-1-1.42-1.33-3.68-1.33h-2.46v19c0,3.4.36,3.64,3.8,3.92v1.49H428.25v-1.49c3.59-.28,4-.52,4-3.92v-19h-2.59c-2.38,0-2.7.32-3.43,1.17a12.43,12.43,0,0,0-1.73,3.95Z"/><path class="cls-1" d="M386.75,561.43v-1.49c3.27-.44,3.43-.61,3.47-4.24l.32-15.14c.08-3.23-.28-3.55-3.51-3.88v-1.49h8.52L403.38,553l7.79-17.81h8.72v1.49c-3.47.33-3.75,1.42-3.63,3.36.93,13.32,1.09,15.62,1.25,16.83.33,2.42,1.37,2.87,3.68,3.07v1.49h-10v-1.49c3-.28,3.84-.85,3.88-3,0-1.45,0-3.95-.53-16.63-2.9,7.06-5.77,14.57-8.39,21.15h-1.34c-2.9-6.86-6.09-14.53-9-21.48l0,15.75c0,3.63.2,3.92,3.27,4.24v1.49Z"/><path class="cls-1" d="M363.9,553.84a16.54,16.54,0,0,0,2.54,4.2c1,1.09,1.57,1.58,3.87,1.58.17,0,2,0,2.1,0,2.22,0,2.31-1.05,2.31-3.27V540.64c0-3.39-.41-3.67-3.56-4v-1.49h12.6v1.49c-3,.25-3.43.57-3.43,4V556c0,3.4.32,3.68,3.87,3.92v1.49h-20c-.37-1.09-1.5-5.37-1.82-7.1Z"/><path class="cls-1" d="M603.64,144.5s0-.75.05-2.15,0-3.5,0-6.18c0-5.43.06-13.34.1-23.42,0-20.15.13-49,.21-83.69l-.41.41,141.66.09h0l-.49-.5c0,41.73,0,81.14.06,115.44l.43-.44L643,144.28l-29,.11-7.7.06-2,0-.7,0,.64,0,2,0,7.61,0,28.89.12,102.58.22h.44v-.44c0-34.3,0-73.71.06-115.44v-.49h-.51l-141.66.08h-.41v.41c.09,34.84.17,63.74.22,84,0,10,.08,17.92.1,23.32q0,4,.05,6.11C603.61,143.81,603.64,144.5,603.64,144.5Z"/><path class="cls-1" d="M602.53,46.19c0,.27,32,.49,71.42.49s71.43-.22,71.43-.49-32-.49-71.43-.49S602.53,45.92,602.53,46.19Z"/><path class="cls-1" d="M733.75,37.77a1.91,1.91,0,1,0,1.91-1.92A1.92,1.92,0,0,0,733.75,37.77Z"/><path class="cls-1" d="M726.8,37.77a1.91,1.91,0,1,0,1.91-1.92A1.91,1.91,0,0,0,726.8,37.77Z"/><path class="cls-1" d="M719.85,37.77a1.91,1.91,0,1,0,1.9-1.92A1.91,1.91,0,0,0,719.85,37.77Z"/><path class="cls-1" d="M680.55,81.07h11.32v1.71c-4,.33-4.45,1.16-3.8,3.9s2.88,10.4,4.59,15.41c2.55-6.78,5.2-13.69,7.75-20.79h2.46c2.13,7.19,4.36,14.2,6.73,20.74,1.53-5.06,3.15-10.49,4.69-15.82.65-2.42.55-3.11-2.93-3.44V81.07h14v1.71c-2.84.28-3.53,1.07-4.69,4.6-2.6,8.21-5.57,17.82-7.43,24.36h-2.69c-2.18-6.73-4.5-13.5-6.91-20.51-2.65,7-5.29,13.83-7.66,20.51h-2.6c-2.92-9.47-6.4-20.46-7.61-24-1.29-3.8-1.9-4.5-5.24-4.92Z"/><path class="cls-1" d="M655.54,102.92a20.45,20.45,0,0,0,2.83,4.64c1,1.25,1.72,1.58,4.32,1.58H666c2.88,0,3-1,3-4.22v-8h-4.5c-2.69,0-3.06.55-3.81,4h-1.81V90.58h1.81c.7,3.29,1.16,4,3.76,4H669v-9.7c0-1.58-.18-1.67-2-1.67h-3c-2.37,0-3,.28-3.81,1.21a11.51,11.51,0,0,0-2,4.31l-1.81-.23c.18-2.88.41-6.68.46-7.52.65,0,2.27.1,7.15.1h15.08v1.71c-3.16.28-3.72.56-3.72,4.5V105c0,3.9.28,4.13,4.5,4.55v1.67H655.77c-.42-1.3-1.71-6.64-1.95-7.89Z"/><path class="cls-1" d="M626.49,87.84a6,6,0,0,1,2.83-5.15c1.86-1.16,4.09-1.62,7.61-1.62H651v1.71c-3.29.24-3.9.65-3.9,4.55V105c0,3.9.37,4.13,4,4.5v1.72h-13a18.3,18.3,0,0,1-8.81-2,8.35,8.35,0,0,1-4.46-7c0-4.41,3.44-6.73,8.31-7.61C630.11,94,626.49,91.69,626.49,87.84ZM640.83,96h-1.62c-5.2,0-7.47,2.13-7.47,6.63,0,4.32,2.5,6.55,5,6.59s4-1,4-4.31Zm0-2V85.2c0-1,0-1.4-.46-1.72a4.47,4.47,0,0,0-2.18-.37c-2.56,0-5.2,1.53-5.2,5.57,0,3.43,1.62,5.33,6,5.33Z"/><path class="cls-3" d="M236.75,763.15a71.81,71.81,0,0,1,30.71-10.58c5-.51,10.5-.36,14.53,2.68a3,3,0,0,1,1.49,2.65,3.2,3.2,0,0,1-1.42,1.81c-12.49,9.54-31.4,10.74-45.31,3.44"/><path class="cls-3" d="M237.53,762.28c7-5.43,13.95-10.89,19.84-17.46s10.68-14.35,12.44-23c.53-2.62.7-5.61-1-7.69-15.81,12.35-28.23,28.32-31.29,48.15"/><path class="cls-3" d="M236.91,763c1.19-8.65,1.62-17.54-.37-26s-6.61-16.64-13.87-21.49c-2.73,6.39-1.56,13.75.37,20.42a99.22,99.22,0,0,0,13.75,29"/><path class="cls-3" d="M221.41,790.8c9.41,1.15,17.6,6.11,24.63,12.47a46.55,46.55,0,0,1,14.09,24.18c-9.23-.57-17.06-7.08-22.74-14.37s-9.61-15.31-15.85-22.14"/><path class="cls-3" d="M218,795.24a60.76,60.76,0,0,0-7-57.46c-5.36,19.07-3.4,40.61,7,57.46"/><path class="cls-3" d="M197.56,819.63a43.9,43.9,0,0,1,42,24.18c.52,1,1,2.36.29,3.29a3.12,3.12,0,0,1-2.79.82c-8.28-.53-15.61-5.52-21.67-11.19s-11.32-12.22-18-17.12"/><path class="cls-3" d="M198.21,818.3a78.23,78.23,0,0,0,.79-43.69c-1.54-5.63-4.13-11.55-9.33-14.19a1.88,1.88,0,0,0-1.43-.25,1.92,1.92,0,0,0-.9,1.05,26.3,26.3,0,0,0-2.2,12.53,78,78,0,0,0,2,12.69c1.64,7.76,2.51,16.1,6.76,22.78a47.42,47.42,0,0,1,2.71,5c.8,1.7.81,2.3,1.55,3.65"/><path class="cls-3" d="M144,826.38c4-15.28-.25-33.8-9.87-46.33-.71-.92-1.65-1.91-2.81-1.8-1.77.17-2.23,2.53-2.15,4.31A83.63,83.63,0,0,0,144,826.38"/><path class="cls-3" d="M139.11,829.72c-18.56,4.83-39.85.14-55.29-11.24a44.72,44.72,0,0,1,29.93-3.68c10,2.29,19.14,6.77,25.36,14.92"/><path class="cls-3" d="M135,819.55c-10.4-16.95-30.33-28-50.18-29,2.28,8.08,8.92,14.35,16.41,18.15s15.85,5.44,24.09,7c3.21.63,7.6,1.31,9.68,3.83"/><path class="cls-3" d="M143,770.19c-2.82-9.65-5.65-19.38-6.42-29.4s.65-20.47,5.85-29.07c9.71,18.79,10.7,40.75.86,59.47"/><path class="cls-3" d="M110.27,753.66c-11.35-20.64-34.52-37.12-58-39.43,9.05,22.51,33.71,39.91,58,39.43"/><path class="cls-3" d="M117.42,757.71c-16.94,2.58-31.37,13.39-47.19,19.95-3.39,1.4-7,2.52-10.67,2s-7.22-2.91-8-6.48c-.68-3,.67-6.12,2.8-8.29a22.74,22.74,0,0,1,7.75-4.7c17.24-7.18,35.72-7.36,53.88-3"/><path class="cls-3" d="M127.22,769.58c-3.84,1.1-5.15,3.09-8.18,5.67a88.29,88.29,0,0,1-35.79,18.39c-1.37.34-3.16.47-3.84-.76s.16-2.39.93-3.35c5.5-6.88,13.35-11.59,21.61-14.67s15.41-6.78,25.27-6"/><path class="cls-3" d="M138.28,697.84a67.71,67.71,0,0,1-51.93,17.67,3.56,3.56,0,0,1-2.36-.85c-1.31-1.42.26-3.62,1.78-4.8C101,698,119.53,693,138.28,697.84"/><path class="cls-3" d="M125.17,693a72.4,72.4,0,0,0-64.8-10.69c8.16,8,19.48,12.37,30.88,13.56A97.83,97.83,0,0,0,125.17,693"/><path class="cls-3" d="M130.38,660.08c1.5-15.24.52-27.27,1.58-42.58.09-1.22.35-2.69,1.49-3.13,1.6-.62,2.92,1.34,3.45,3a48.83,48.83,0,0,1-6.5,42.4"/><path class="cls-3" d="M131.47,661.76c-10.32-6.39-18.07-14.73-25.24-24.53-5-6.82-9.19-15-8-23.37,7-.14,13.65,3.72,18.2,9s7.26,12,9.29,18.68,3.43,13.59,5.8,20.18"/><path class="cls-3" d="M106.67,654.87a203.4,203.4,0,0,1-62.11-36.63c7.42-3,15.91-1.2,23.33,1.8,17,6.84,30.8,18.39,39.11,34.66"/><path class="cls-3" d="M124.5,670.1c-11.47,1.25-23.11,2.06-34.49.16-11.18-1.87-21.75-6.3-32.2-10.7a3.75,3.75,0,0,1-2.19-1.66,2.51,2.51,0,0,1,.79-2.75,6.61,6.61,0,0,1,2.74-1.29c11.36-3.18,23.62-1.69,34.8,2.08A161.3,161.3,0,0,1,124.5,670.1"/><path class="cls-3" d="M190,698.36c7.82-15.79,7.31-34.22.55-50.49-4.75,7.25-5.33,16.48-4.47,25.1s3.5,17.51,3.67,26.18"/><path class="cls-3" d="M221.23,682.6a70.44,70.44,0,0,1,52.33,22.29c-9.75,1.54-19.79-1-28.65-5.31s-16.75-10.4-24.56-16.44"/><path class="cls-3" d="M242.24,675.57c9.56-.77,18.75-2,27.94.86s17.55,9.21,21.29,18.06c-8.94,1-18-1.24-26.19-5s-15.64-8.85-23-14"/><path class="cls-3" d="M211.13,675.89c8.6-5.63,17.42-11.36,27.43-13.7s21.61-.61,28.59,6.94c-8.1,4.75-17.93,5.31-27.33,5.31s-20.91-.12-29.76,3"/><path class="cls-3" d="M211.08,676.35c14.7-14.43,20.27-40.36,14.35-60.09a91.59,91.59,0,0,0-14.35,60.09"/><path class="cls-3" d="M170.67,635.46c-2.77-6.44-4.72-13.21-7.21-19.76s-5.58-13-10.27-18.22S142,588.39,135,588a73.26,73.26,0,0,0,35.32,47.52"/><path class="cls-3" d="M178,644c4.59-6.31,9.89-14.88,16.11-19.59s14.32-7.57,21.91-5.76A51,51,0,0,1,178,644"/><path class="cls-3" d="M176.52,636c3-7.64,6-15.36,7.25-23.48s.48-16.79-3.68-23.87c-8.06,15.24-10.66,31.61-4,47.52"/><path class="cls-3" d="M170.6,588.64c-4.57-15.12-18.42-26.25-33.36-31.36a12.55,12.55,0,0,0-5.85-.88,5.08,5.08,0,0,0-4.31,3.6c-.54,2.57,1.58,4.88,3.58,6.59a113.56,113.56,0,0,0,39.94,22"/><path class="cls-3" d="M170.43,576.27c-.58-9.74-1.19-19.63-4.36-28.87s-9.28-17.89-18.17-21.94c-1.51,9.85,2.83,19.64,8.07,28.11s11.55,16.47,14.7,25.92"/><path class="cls-3" d="M170.67,583c3.78-11,4.17-25,10.76-34.61,4.61-6.7,12-11.28,16-18.38,2.64,6.64,1.83,14.28-.93,20.87s-7.32,12.26-12.2,17.47-9.06,9.14-13.6,14.65"/><path class="cls-6" d="M170.6,907.42c.29,0,.54-73.49.56-164.13s-.2-164.15-.49-164.15-.55,73.48-.57,164.15S170.3,907.42,170.6,907.42Z"/><path class="cls-6" d="M106.37,687.27a15.76,15.76,0,0,0,2.76,1l7.61,2.57c6.41,2.18,15.22,5.34,24.78,9.26S159.91,707.5,165,711.9a17.3,17.3,0,0,1,4.71,6.24c.73,1.73.86,2.79,1,2.77s0-.27,0-.77a12.06,12.06,0,0,0-.54-2.15,16.62,16.62,0,0,0-4.61-6.65A41.35,41.35,0,0,0,155.31,705c-4.08-1.9-8.59-3.88-13.39-5.85-9.59-3.93-18.46-7-24.95-9-3.24-1-5.88-1.75-7.72-2.25A15.53,15.53,0,0,0,106.37,687.27Z"/><path class="cls-6" d="M85.32,635.56a4.3,4.3,0,0,0,.77.83l2.36,2.22,8.81,8,29.3,26.09c11.44,10.19,21.32,19.91,28.17,27.24,3.43,3.66,6.13,6.69,8,8.8l2.13,2.44c.49.55.76.83.79.8A4.81,4.81,0,0,0,165,711c-.44-.59-1.09-1.47-2-2.56-1.75-2.2-4.38-5.32-7.74-9.05a372.64,372.64,0,0,0-28-27.52c-11.48-10.16-21.93-19.28-29.52-25.86l-9-7.74-2.49-2.07A5.68,5.68,0,0,0,85.32,635.56Z"/><path class="cls-6" d="M138.91,683.05c.3-.14-2.09-5.65-4.47-12.63s-3.54-12.87-3.84-12.82.4,6.09,2.83,13.16a85.76,85.76,0,0,0,3.56,8.83C138,681.79,138.78,683.11,138.91,683.05Z"/><path class="cls-6" d="M170.53,727.53a13.62,13.62,0,0,0,1.76-2l4.52-5.79c3.79-4.9,9-11.67,14.91-19.07s11.28-14,15.2-18.86l4.61-5.71a12.56,12.56,0,0,0,1.59-2.18,12.94,12.94,0,0,0-1.9,1.91c-1.18,1.28-2.85,3.15-4.88,5.5-4.06,4.68-9.56,11.26-15.45,18.68s-11,14.26-14.68,19.28c-1.83,2.51-3.28,4.56-4.25,6A12.85,12.85,0,0,0,170.53,727.53Z"/><path class="cls-6" d="M184.61,709.45c.17.19,3.93-4.27,5.9-11a31.59,31.59,0,0,0,1.34-11.14l-.47,0c.21.85.36,1.3.45,1.29s.08-.49,0-1.36l-.46,0a51.63,51.63,0,0,1-1.89,10.84C187.59,704.67,184.33,709.27,184.61,709.45Z"/><path class="cls-6" d="M202.79,686.58c.14.15,1.35-1.37,4.12-2.39s6.89-1.3,11.43-.91a70.71,70.71,0,0,1,11.52,1.86c2.91.72,4.68,1.29,4.74,1.14s-1.64-.95-4.54-1.86a52.47,52.47,0,0,0-11.64-2.2c-4.59-.4-8.95,0-11.79,1.27S202.7,686.56,202.79,686.58Z"/><path class="cls-6" d="M207.1,681c.08.17,2.4-1,6.31-2.3a63.45,63.45,0,0,1,31.8-2.42c4.07.73,6.53,1.49,6.59,1.31a6.12,6.12,0,0,0-1.68-.71,38.21,38.21,0,0,0-4.76-1.34A56.06,56.06,0,0,0,213.15,678a38.63,38.63,0,0,0-4.5,2A6.46,6.46,0,0,0,207.1,681Z"/><path class="cls-6" d="M170.67,657.6c.28.08,2.34-7.08,4.6-16s3.86-16.18,3.57-16.25-2.34,7.08-4.6,16S170.39,657.53,170.67,657.6Z"/><path class="cls-6" d="M170.38,657.6c.31.11,1.64-4.68,5.1-9.57s7.66-7.5,7.5-7.74-1.24.32-2.89,1.49a23.28,23.28,0,0,0-5.48,5.64C171,652.51,170.12,657.59,170.38,657.6Z"/><path class="cls-6" d="M170.6,868.24c.11,0,.33-1.77,1.15-4.89a69.27,69.27,0,0,1,4.92-12.72c5.07-10.38,14.31-23.53,26.05-36.71C208.54,807.27,214.18,801,219,795a133.48,133.48,0,0,0,11.63-16.76,80.27,80.27,0,0,0,5.86-12.44c.54-1.53.94-2.73,1.15-3.56a6.2,6.2,0,0,0,.31-1.27c-.1,0-.63,1.69-1.84,4.68A90.45,90.45,0,0,1,230,777.86a140.6,140.6,0,0,1-11.74,16.53c-4.81,5.94-10.46,12.17-16.29,18.83-11.77,13.21-21,26.54-25.93,37.08a63.49,63.49,0,0,0-4.64,13,36.27,36.27,0,0,0-.65,3.69A5.78,5.78,0,0,0,170.6,868.24Z"/><path class="cls-6" d="M112.56,802.69a27.8,27.8,0,0,0,3,1.71,65.61,65.61,0,0,1,7.89,5.21,91,91,0,0,1,10.36,9.45c3.64,3.84,7.38,8.31,11.21,13.09,7.64,9.59,14.79,18.07,19.07,24.85,2.18,3.36,3.76,6.19,4.79,8.18a25.67,25.67,0,0,0,1.68,3.06,3.27,3.27,0,0,0-.29-.86c-.22-.55-.53-1.37-1-2.38a74.67,74.67,0,0,0-4.52-8.4c-4.16-6.94-11.25-15.54-18.88-25.12-3.83-4.79-7.63-9.26-11.33-13.09A83.88,83.88,0,0,0,123.94,809a54.84,54.84,0,0,0-8.15-5c-1-.5-1.83-.82-2.37-1A3.14,3.14,0,0,0,112.56,802.69Z"/><path class="cls-6" d="M111.42,824c0,.15,2.46.45,6.43.93a84.5,84.5,0,0,1,15.25,3,45.84,45.84,0,0,1,13.65,7.17c3.15,2.43,4.63,4.44,4.78,4.32a5.22,5.22,0,0,0-.95-1.48,24.53,24.53,0,0,0-3.35-3.42,41.41,41.41,0,0,0-13.8-7.6,69.44,69.44,0,0,0-15.5-2.74C113.92,823.85,111.44,823.82,111.42,824Z"/><path class="cls-6" d="M149.65,837.05c.34-.19-2.56-4.62-4.81-10.57s-2.6-11.27-3-11.21c-.13,0-.13,1.33.11,3.45a37.29,37.29,0,0,0,1.87,8.12,39.74,39.74,0,0,0,3.73,7.45C148.72,836.09,149.53,837.12,149.65,837.05Z"/><path class="cls-6" d="M93.76,745.6a5.8,5.8,0,0,0,1,.55l3,1.37c1.33.57,2.93,1.29,4.74,2.24s3.94,1.9,6.15,3.23l3.5,2c1.22.7,2.42,1.53,3.7,2.33,2.59,1.57,5.18,3.5,7.94,5.48a149.27,149.27,0,0,1,16.58,14.57,148.87,148.87,0,0,1,14,17.07c1.88,2.83,3.72,5.48,5.2,8.12.76,1.31,1.55,2.54,2.2,3.78l1.88,3.57c1.25,2.25,2.14,4.41,3,6.25s1.56,3.47,2.08,4.81.94,2.26,1.27,3.07a5.17,5.17,0,0,0,.51,1.05,4.28,4.28,0,0,0-.31-1.12c-.28-.83-.64-1.87-1.08-3.14s-1.08-3-1.92-4.91-1.68-4.06-2.89-6.34l-1.82-3.63c-.65-1.26-1.42-2.51-2.17-3.83-1.46-2.68-3.28-5.37-5.15-8.24a143,143,0,0,0-14-17.25A143.44,143.44,0,0,0,124.43,762c-2.8-2-5.43-3.88-8.06-5.43-1.29-.79-2.52-1.61-3.75-2.29l-3.56-1.95c-2.25-1.29-4.4-2.22-6.25-3.11s-3.48-1.57-4.83-2.08L94.87,746A5,5,0,0,0,93.76,745.6Z"/><path class="cls-6" d="M139.7,776.37c.09,0-.42-1.8-2.53-3.76a15.94,15.94,0,0,0-10.18-3.9,27.66,27.66,0,0,0-10.7,2.09c-2.6,1-4.1,1.84-4.05,2s1.67-.44,4.29-1.26A32.4,32.4,0,0,1,127,769.77a16.61,16.61,0,0,1,9.72,3.41C138.78,774.88,139.53,776.48,139.7,776.37Z"/><path class="cls-6" d="M146.56,783.46c.29-.17-2.3-4-2.89-9.4s1-9.73.65-9.82c-.12,0-.7,1-1.19,2.74a19.45,19.45,0,0,0,1.64,14.09C145.67,782.69,146.46,783.53,146.56,783.46Z"/><path class="cls-6" d="M221.35,878.77c-1.58,28.09-10,56.65-23.06,85.53H141.68c-12.42-28.59-20.29-57.11-21.7-85.53Z"/><path class="cls-7" d="M129.16,924.22c0,.29,18.64.53,41.63.53s41.63-.24,41.63-.53-18.64-.53-41.63-.53S129.16,923.93,129.16,924.22Z"/><path class="cls-7" d="M130.42,934.39c0,.3,17.48.54,39,.54s39-.24,39-.54-17.47-.53-39-.53S130.42,934.1,130.42,934.39Z"/><path class="cls-3" d="M507.41,236.15c-4,0-6.87-3.27-6.87-8.74s2.9-8.75,6.87-8.75,6.86,3.27,6.86,8.75S511.39,236.15,507.41,236.15Zm0-1.62c3,0,5.06-2.53,5.06-7.12s-2.06-7.13-5.06-7.13-5.05,2.53-5.05,7.13S504.42,234.53,507.41,234.53Z"/><path class="cls-3" d="M491.15,236.15c-4,0-6.87-3.27-6.87-8.74s2.89-8.75,6.87-8.75,6.85,3.27,6.85,8.75S495.13,236.15,491.15,236.15Zm0-1.62c3,0,5.06-2.53,5.06-7.12s-2.06-7.13-5.06-7.13-5.06,2.53-5.06,7.13S488.16,234.53,491.15,234.53Z"/><path class="cls-3" d="M482.85,218.81v1.57H478.8V236H477V218.81Z"/><path class="cls-3" d="M466.07,236.15c-4,0-6.87-3.27-6.87-8.74s2.89-8.75,6.87-8.75,6.86,3.27,6.86,8.75S470.05,236.15,466.07,236.15Zm0-1.62c3,0,5.06-2.53,5.06-7.12s-2.06-7.13-5.06-7.13-5.06,2.53-5.06,7.13S463.08,234.53,466.07,234.53Z"/><path class="cls-3" d="M457.77,218.81v1.57h-4V236H452V218.81Z"/><path class="cls-3" d="M524.34,260.55c-4,0-6.87-3.26-6.87-8.74s2.9-8.74,6.87-8.74,6.86,3.26,6.86,8.74S528.32,260.55,524.34,260.55Zm0-1.62c3,0,5.06-2.53,5.06-7.12s-2.06-7.12-5.06-7.12-5.05,2.53-5.05,7.12S521.35,258.93,524.34,258.93Z"/><path class="cls-3" d="M508.08,260.55c-4,0-6.87-3.26-6.87-8.74s2.89-8.74,6.87-8.74,6.85,3.26,6.85,8.74S512.06,260.55,508.08,260.55Zm0-1.62c3,0,5.06-2.53,5.06-7.12s-2.06-7.12-5.06-7.12-5.06,2.53-5.06,7.12S505.09,258.93,508.08,258.93Z"/><path class="cls-3" d="M499.78,243.21v1.58h-4v15.62H494v-17.2Z"/><path class="cls-3" d="M483,260.55c-4,0-6.87-3.26-6.87-8.74s2.89-8.74,6.87-8.74,6.86,3.26,6.86,8.74S487,260.55,483,260.55Zm0-1.62c3,0,5.06-2.53,5.06-7.12s-2.06-7.12-5.06-7.12-5.06,2.53-5.06,7.12S480,258.93,483,258.93Z"/><path class="cls-3" d="M474.7,243.21v1.58h-4.05v15.62h-1.77v-17.2Z"/><path class="cls-3" d="M465.83,243.21v1.58h-4.05v15.62H460v-17.2Z"/><path class="cls-3" d="M449.06,260.55c-4,0-6.88-3.26-6.88-8.74s2.9-8.74,6.88-8.74,6.85,3.26,6.85,8.74S453,260.55,449.06,260.55Zm0-1.62c3,0,5.06-2.53,5.06-7.12s-2.07-7.12-5.06-7.12-5.06,2.53-5.06,7.12S446.06,258.93,449.06,258.93Z"/><path class="cls-3" d="M440.75,243.21v1.58H436.7v15.62h-1.77v-17.2Z"/><path class="cls-3" d="M507.41,284.15c-4,0-6.87-3.26-6.87-8.74s2.89-8.74,6.87-8.74,6.85,3.26,6.85,8.74S511.39,284.15,507.41,284.15Zm0-1.62c3,0,5.06-2.53,5.06-7.12s-2.06-7.12-5.06-7.12-5.06,2.53-5.06,7.12S504.42,282.53,507.41,282.53Z"/><path class="cls-3" d="M499.11,266.81v1.57h-4.05V284h-1.77v-17.2Z"/><path class="cls-3" d="M490.24,266.81v1.57h-4.05V284h-1.77v-17.2Z"/><path class="cls-3" d="M481.37,266.81v1.57h-4.05V284h-1.77v-17.2Z"/><path class="cls-3" d="M464.6,284.15c-4,0-6.88-3.26-6.88-8.74s2.9-8.74,6.88-8.74,6.85,3.26,6.85,8.74S468.57,284.15,464.6,284.15Zm0-1.62c3,0,5.06-2.53,5.06-7.12s-2.07-7.12-5.06-7.12-5.06,2.53-5.06,7.12S461.6,282.53,464.6,282.53Z"/><path class="cls-3" d="M456.29,266.81v1.57h-4.05V284h-1.77v-17.2Z"/><path class="cls-6" d="M448.27,47.41s-.38,0-1.14,0l-3.38.11c-.74,0-1.57,0-2.49.12l-3,.42-3.48.51-3.87,1a68.75,68.75,0,0,0-8.92,3l-4.86,2.31c-1.68.83-3.28,1.93-5,2.93a66.43,66.43,0,0,0-30.56,49.81,72,72,0,0,0-.21,9.08c.1,1.54.11,3.09.28,4.65s.47,3.11.71,4.68a65.2,65.2,0,0,0,6.24,18.5,66.35,66.35,0,0,0,29.3,29.27c1.66.76,3.27,1.66,5,2.32L428.1,178c1.78.51,3.6.94,5.41,1.42a54.08,54.08,0,0,0,5.55,1c.93.13,1.86.34,2.81.39l2.84.14c1.9.1,3.8.23,5.71.15a67.49,67.49,0,0,0,11.46-1.36,66.59,66.59,0,0,0,18.54-6.8l-.53,0,22.32,10.63,1,.49-.21-1.12q-2.4-12.69-4.67-24.65l-.13.47A66.84,66.84,0,0,0,514,101a65.7,65.7,0,0,0-10-24.11,67.78,67.78,0,0,0-15.42-16.23,71.57,71.57,0,0,0-8.1-5.29c-1.34-.73-2.7-1.31-4-1.95a30.93,30.93,0,0,0-3.81-1.63,54.88,54.88,0,0,0-7.05-2.27,43.79,43.79,0,0,0-6.05-1.29c-1.83-.25-3.45-.53-4.86-.66l-3.57-.14L449,47.4a3.77,3.77,0,0,0-.74,0,3.58,3.58,0,0,0,.74.09l2.18.15,3.55.23c1.4.16,3,.47,4.83.75a44.12,44.12,0,0,1,6,1.37,52.74,52.74,0,0,1,7,2.33A28.49,28.49,0,0,1,476.29,54c1.26.64,2.61,1.23,3.93,2a71.22,71.22,0,0,1,8,5.31,67.33,67.33,0,0,1,15.14,16.13,65.05,65.05,0,0,1,9.73,23.83A66,66,0,0,1,497.39,158l-.18.2.05.27,4.64,24.66.81-.63-22.32-10.64-.27-.13-.26.14a66,66,0,0,1-18.22,6.68,67.05,67.05,0,0,1-11.25,1.33c-1.88.08-3.76,0-5.62-.14l-2.79-.14c-.93,0-1.84-.26-2.76-.38a49.68,49.68,0,0,1-5.45-1c-1.78-.46-3.57-.89-5.32-1.38L423.33,175c-1.69-.64-3.27-1.53-4.91-2.27a69.33,69.33,0,0,1-17-12.37A68.85,68.85,0,0,1,389.56,144a64.46,64.46,0,0,1-6.18-18.2c-.24-1.54-.48-3.08-.71-4.6s-.19-3.07-.29-4.58a71.9,71.9,0,0,1,.17-9A66,66,0,0,1,412.49,58.3c1.72-1,3.3-2.12,4.95-2.94l4.8-2.34a69.81,69.81,0,0,1,8.81-3l3.85-1,3.44-.55,3-.48c.91-.09,1.74-.12,2.48-.17l3.36-.23C447.89,47.47,448.27,47.41,448.27,47.41Z"/><path class="cls-3" d="M430.8,130.83a7.49,7.49,0,0,0-1.17-1.33l-3.4-3.42c-2.9-2.86-6.94-6.77-11.43-11.06l-.1-.1v.58c4.53-4.2,8.59-8,11.51-10.84l3.42-3.35A7.34,7.34,0,0,0,430.8,100a7.63,7.63,0,0,0-1.39,1.08l-3.59,3.17c-3,2.69-7.13,6.46-11.66,10.67l-.31.29.3.29.1.09c4.5,4.29,8.6,8.14,11.59,10.9l3.58,3.23A7.52,7.52,0,0,0,430.8,130.83Z"/><path class="cls-3" d="M430.83,131.43a.51.51,0,0,0,.38-.21c.43-.45.15-.74-1.18-2.12l-3.4-3.42c-2.87-2.83-6.68-6.52-10.8-10.46,4.09-3.81,7.89-7.39,10.76-10.15l3.43-3.36c1.35-1.36,1.62-1.64,1.19-2.1s-.75-.17-2.17,1l-3.59,3.17c-3.14,2.81-7.28,6.6-11.68,10.68l-.31.29a.58.58,0,0,0,0,.83l.31.29c4.41,4.2,8.52,8.07,11.7,11l3.58,3.24C430.05,131,430.5,131.43,430.83,131.43Z"/><path class="cls-3" d="M465.75,100a7.49,7.49,0,0,0,1.17,1.33l3.4,3.42c2.9,2.86,6.94,6.77,11.43,11.06l.1.1v-.58c-4.53,4.21-8.6,8-11.51,10.84q-2,2-3.42,3.35a7.34,7.34,0,0,0-1.18,1.31,8.07,8.07,0,0,0,1.39-1.08l3.59-3.17c3-2.69,7.13-6.46,11.66-10.67l.31-.29-.3-.29-.11-.09c-4.49-4.29-8.59-8.14-11.58-10.9l-3.58-3.23A7.52,7.52,0,0,0,465.75,100Z"/><path class="cls-3" d="M465.72,131.43c.33,0,.78-.39,1.78-1.25l3.6-3.17c3.18-2.85,7.32-6.64,11.68-10.68l.31-.29a.58.58,0,0,0,.18-.41.56.56,0,0,0-.18-.42l-.3-.29c-4.47-4.26-8.59-8.13-11.7-11l-3.58-3.24c-1.44-1.27-1.74-1.54-2.17-1.08s-.15.74,1.17,2.12l3.41,3.42c2.86,2.83,6.68,6.52,10.8,10.46-4.09,3.81-7.89,7.39-10.76,10.16l-3.43,3.35c-1.35,1.36-1.63,1.64-1.19,2.1A.53.53,0,0,0,465.72,131.43Z"/><path class="cls-3" d="M456.78,138.09c.2-.08-3.47-10.39-8.19-23s-8.73-22.82-8.94-22.75,3.47,10.39,8.2,23S456.57,138.17,456.78,138.09Z"/><path class="cls-3" d="M456.7,138.7a.93.93,0,0,0,.28-.08h0c.65-.24.9-.34-7.86-23.75-8.51-22.75-9-23-9.22-23.07a.59.59,0,0,0-.45,0c-.65.25-.89.34,7.86,23.76,2.29,6.12,4.48,11.86,6.17,16.15C455.86,137.75,456.24,138.7,456.7,138.7Z"/><rect class="cls-8" x="124" y="409.1" width="196.46" height="79.8"/><path class="cls-3" d="M124,488.9s0-.49,0-1.42,0-2.33,0-4.14c0-3.64,0-9,.06-15.88,0-13.78.07-33.7.12-58.36l-.22.22,196.45.09h0l-.31-.31c0,27.95,0,54.92,0,79.8l.29-.29-140.86.14-40.86.08-10.94,0-2.83,0h-1s.31,0,.93,0l2.8,0,10.88,0,40.79.08,141.06.14h.3v-.3c0-24.88,0-51.85,0-79.8v-.31h-.32L124,408.88h-.22v.22c0,24.72.09,44.69.12,58.49,0,6.87,0,12.2,0,15.83,0,1.8,0,3.17,0,4.1S124,488.9,124,488.9Z"/><rect class="cls-3" x="256.31" y="427.38" width="47.45" height="47.45" transform="translate(560.08 902.22) rotate(-180)"/><path class="cls-3" d="M137.59,445.55c0,.17,24.42.31,54.54.31s54.54-.14,54.54-.31-24.42-.31-54.54-.31S137.59,445.38,137.59,445.55Z"/><path class="cls-3" d="M137.59,455.22c0,.17,24.42.31,54.54.31s54.54-.14,54.54-.31-24.42-.31-54.54-.31S137.59,455.05,137.59,455.22Z"/><path class="cls-3" d="M176.45,464.89a3.36,3.36,0,0,0,.71.06l2.05.06,7.52.1,24.83.09,24.82-.09,7.53-.1,2-.06a3.42,3.42,0,0,0,.72-.06,3,3,0,0,0-.72-.07l-2-.05-7.53-.1-24.82-.09-24.83.09-7.52.1-2.05.05A2.9,2.9,0,0,0,176.45,464.89Z"/><rect class="cls-7" x="162.61" y="179.93" width="207.27" height="136.77"/><path class="cls-9" d="M162.61,316.7s0-.87,0-2.51,0-4.08.06-7.22c0-6.35.06-15.63.12-27.51.06-23.77.14-57.9.24-99.53l-.47.47,207.26.12h0l-.59-.59c0,48.66,0,95,0,136.77l.54-.55-149.22.27-42.71.15-11.37.06-3,0-1,0s.31,0,1,0l2.88,0,11.27.07,42.58.14,149.58.27h.54v-.54c0-41.81,0-88.11.05-136.77v-.6h-.6l-207.26.12h-.47v.47c.11,41.76.19,76,.25,99.82.05,11.83.09,21.08.12,27.4q0,4.67.05,7.14C162.58,315.9,162.61,316.7,162.61,316.7Z"/><path class="cls-9" d="M161.66,193.88c0,.32,46.3.59,103.39.59s103.4-.27,103.4-.59-46.29-.59-103.4-.59S161.66,193.55,161.66,193.88Z"/><rect class="cls-3" x="285.81" y="213.57" width="66.04" height="87.06" transform="translate(637.66 514.21) rotate(-180)"/><path class="cls-3" d="M180.65,217.63c0,.33,20.72.59,46.29.59s46.29-.26,46.29-.59-20.72-.59-46.29-.59S180.65,217.31,180.65,217.63Z"/><path class="cls-3" d="M180.65,228.53c0,.32,20.72.59,46.29.59s46.29-.27,46.29-.59-20.72-.59-46.29-.59S180.65,228.2,180.65,228.53Z"/><path class="cls-3" d="M180.65,239.42c0,.33,20.72.59,46.29.59s46.29-.26,46.29-.59-20.72-.59-46.29-.59S180.65,239.1,180.65,239.42Z"/><path class="cls-3" d="M180.65,250.32c0,.32,20.72.59,46.29.59s46.29-.27,46.29-.59-20.72-.59-46.29-.59S180.65,250,180.65,250.32Z"/><rect class="cls-3" x="183.51" y="259.34" width="37.22" height="41.29" transform="translate(404.24 559.98) rotate(-180)"/><path class="cls-3" d="M226.84,261.21c0,.33,10.12.59,22.61.59s22.62-.26,22.62-.59-10.13-.59-22.62-.59S226.84,260.89,226.84,261.21Z"/><path class="cls-3" d="M226.84,272.11c0,.32,10.12.59,22.61.59s22.62-.27,22.62-.59-10.13-.59-22.62-.59S226.84,271.78,226.84,272.11Z"/><path class="cls-3" d="M226.84,284.73c0,.33,10.12.59,22.61.59s22.62-.26,22.62-.59-10.13-.59-22.62-.59S226.84,284.41,226.84,284.73Z"/><path class="cls-3" d="M228,297.61c0,.33,10.13.59,22.62.59s22.61-.26,22.61-.59-10.12-.59-22.61-.59S228,297.29,228,297.61Z"/><path class="cls-3" d="M781.82,296.28a6,6,0,0,0,0-1c0-.7,0-1.61.06-2.75,0-2.48.07-6,.12-10.35.06-8.95.15-21.59.25-36.82l-.48.48,63.53.1-.57-.57h0V259c0,4.45,0,8.82,0,13.08,0,8.54,0,16.67.05,24.24l.51-.51-45.76.26-13.05.13-3.48.06a10.62,10.62,0,0,0-1.24.06,7.34,7.34,0,0,0,1.12.06l3.39.06,12.92.14,46.1.26h.52v-.52c0-7.57,0-15.7,0-24.24,0-4.26,0-8.63,0-13.08,0-2.23,0-4.47,0-6.74V245.4h0l-.58-.58-63.53.09h-.48v.48c.1,15.35.19,28.1.25,37.12,0,4.35.09,7.79.12,10.24,0,1.11,0,2,.06,2.67A5.26,5.26,0,0,0,781.82,296.28Z"/><path class="cls-3" d="M789.94,277.71a32.07,32.07,0,0,0,4-3.44c2.44-2.26,5.88-5.52,10-9.42l-.75,0,10.08,11.52.41.46.37.42.43-.35,6.23-5.17h-.73c5.5,4.9,10.3,9.12,13.74,12.09l4.07,3.45a7.57,7.57,0,0,0,1.56,1.14,7.88,7.88,0,0,0-1.3-1.43l-3.86-3.68c-3.31-3.12-8-7.45-13.46-12.4l-.36-.32-.37.31L813.67,276l.79.06-.4-.46c-3.67-4.11-7.12-8-10.18-11.44l-.36-.41-.38.38c-4,4-7.34,7.33-9.66,9.72A33,33,0,0,0,789.94,277.71Z"/><path class="cls-3" d="M823.24,260.22c.08,0,.36-.37,1-.94a5.59,5.59,0,0,1,3.22-1.42,5.27,5.27,0,0,1,4.56,1.9,5.12,5.12,0,0,1-4.79,8.3,5.24,5.24,0,0,1-3.93-3,5.58,5.58,0,0,1-.38-3.5c.18-.84.4-1.29.32-1.34s-.42.35-.75,1.22a5.55,5.55,0,0,0,.06,3.93A6,6,0,0,0,827,269.1a6.13,6.13,0,0,0,5.79-10,6,6,0,0,0-5.48-2,5.66,5.66,0,0,0-3.43,1.91C823.32,259.69,823.18,260.2,823.24,260.22Z"/><path class="cls-3" d="M852.73,282.41c.09,0,.36-.37,1-1a5.65,5.65,0,0,1,3.22-1.41,5.26,5.26,0,0,1,4.57,1.89,5.13,5.13,0,0,1-4.8,8.31,5.25,5.25,0,0,1-3.92-3,5.63,5.63,0,0,1-.39-3.49c.18-.85.41-1.3.32-1.34s-.41.34-.75,1.22a5.61,5.61,0,0,0,.07,3.93,6,6,0,0,0,4.49,3.73,6.14,6.14,0,0,0,5.79-10,6,6,0,0,0-5.48-2,5.64,5.64,0,0,0-3.44,1.91C852.82,281.88,852.68,282.38,852.73,282.41Z"/><path class="cls-3" d="M813.59,298.52a4,4,0,0,0-.1,1.09c0,.82-.06,1.86-.1,3.14,0,2.89-.09,6.87-.16,11.84V315h.37c13.13.13,33.78.22,56.95.22H874v-.58c-.06-18.08-.11-34.44-.15-46.8v-.42h-.42l-17.05.19-4.64.11a8.39,8.39,0,0,0-1.61.12,8.39,8.39,0,0,0,1.61.12l4.64.11,17.05.19-.42-.42c0,12.36-.1,28.72-.16,46.8l.58-.57h-2.93c-23.17,0-43.82.08-56.95.22l.35.35c-.07-5-.12-8.95-.16-11.84,0-1.28-.07-2.32-.09-3.14A5.44,5.44,0,0,0,813.59,298.52Z"/><path class="cls-3" d="M848.75,293.15c-.21.25,4,4,9.19,8.71s9.4,8.46,9.63,8.23-3.65-4.39-8.86-9.08S848.94,292.91,848.75,293.15Z"/><path class="cls-3" d="M835.92,305.93c.2.24,1.93-.86,3.58-2.73s2.54-3.71,2.28-3.88-1.55,1.32-3.14,3.12S835.72,305.68,835.92,305.93Z"/><path class="cls-3" d="M761.33,342.64s0-.82,0-2.36,0-3.84,0-6.8c0-6,.06-14.73.11-26,.06-22.45.14-54.75.24-94.37l-.45.45,217,.13h0l-.58-.58c0,45.86,0,89.63.05,129.48l.53-.54-156.12.26-44.82.15-12,.06-3.09,0-1.07,0s.33,0,1,0l3,0,11.85.07,44.7.14,156.47.26h.53v-.53c0-39.85,0-83.62,0-129.48v-.57h-.59l-217,.12h-.45v.45c.1,39.73.18,72.13.24,94.65,0,11.17.09,19.89.11,25.85,0,2.92,0,5.17,0,6.72S761.33,342.64,761.33,342.64Z"/><rect class="cls-3" x="894.69" y="243.48" width="66.12" height="4.83" transform="translate(1855.51 491.79) rotate(-180)"/><path class="cls-3" d="M897.36,267.37c0,.32,14.43.57,32.22.57s32.22-.25,32.22-.57-14.43-.57-32.22-.57S897.36,267.05,897.36,267.37Z"/><path class="cls-3" d="M897.36,278.08c0,.32,14.43.58,32.22.58s32.22-.26,32.22-.58-14.43-.57-32.22-.57S897.36,277.76,897.36,278.08Z"/><path class="cls-3" d="M897.36,288.79c0,.32,14.43.58,32.22.58s32.22-.26,32.22-.58-14.43-.57-32.22-.57S897.36,288.47,897.36,288.79Z"/><path class="cls-3" d="M897.36,299.5c0,.32,14.43.58,32.22.58s32.22-.26,32.22-.58-14.43-.57-32.22-.57S897.36,299.19,897.36,299.5Z"/><path class="cls-3" d="M932.8,310c0,.32,6.49.58,14.5.58s14.5-.26,14.5-.58-6.49-.57-14.5-.57S932.8,309.69,932.8,310Z"/><path class="cls-9" d="M496.84,405.71H369a5.07,5.07,0,0,1-3.74-1.65l-48-52.66A5.07,5.07,0,0,1,316,348V251.85a5,5,0,0,1,5.05-5H443.39a5,5,0,0,1,5.05,5v92a5.08,5.08,0,0,0,1.51,3.6l50.43,49.6A5,5,0,0,1,496.84,405.71Z"/><rect class="cls-5" x="320.44" y="252.82" width="123.35" height="87.77" transform="translate(764.24 593.42) rotate(-180)"/><path class="cls-6" d="M317.65,346.75c0,.32,28.71.59,64.12.59s64.13-.27,64.13-.59-28.71-.59-64.13-.59S317.65,346.42,317.65,346.75Z"/><path class="cls-9" d="M329.94,334.14a15.91,15.91,0,0,0-3.94-.24h-.59l.23.23a13,13,0,0,0-.23-3.35,13,13,0,0,0-.23,3.35v.24H326A16.85,16.85,0,0,0,329.94,334.14Z"/><path class="cls-9" d="M339,334.14a10.81,10.81,0,0,0-4.53,0,11.27,11.27,0,0,0,4.53,0Z"/><path class="cls-9" d="M348.08,334.14a10.81,10.81,0,0,0-4.53,0,11.27,11.27,0,0,0,4.53,0Z"/><path class="cls-9" d="M357.15,334.14a10.86,10.86,0,0,0-4.54,0,11.32,11.32,0,0,0,4.54,0Z"/><path class="cls-9" d="M366.22,334.14a10.86,10.86,0,0,0-4.54,0,11.32,11.32,0,0,0,4.54,0Z"/><path class="cls-9" d="M375.29,334.14a10.86,10.86,0,0,0-4.54,0,11.32,11.32,0,0,0,4.54,0Z"/><path class="cls-9" d="M384.35,334.14a10.81,10.81,0,0,0-4.53,0,11.27,11.27,0,0,0,4.53,0Z"/><path class="cls-9" d="M393.42,334.14a10.81,10.81,0,0,0-4.53,0,11.27,11.27,0,0,0,4.53,0Z"/><path class="cls-9" d="M402.49,334.14a10.81,10.81,0,0,0-4.53,0,11.27,11.27,0,0,0,4.53,0Z"/><path class="cls-9" d="M411.56,334.14a10.86,10.86,0,0,0-4.54,0,11.32,11.32,0,0,0,4.54,0Z"/><path class="cls-9" d="M420.63,334.14a10.86,10.86,0,0,0-4.54,0,11.32,11.32,0,0,0,4.54,0Z"/><path class="cls-9" d="M429.7,334.14a10.86,10.86,0,0,0-4.54,0,11.32,11.32,0,0,0,4.54,0Z"/><path class="cls-9" d="M438.76,334.14a10.81,10.81,0,0,0-4.53,0,11.27,11.27,0,0,0,4.53,0Z"/><path class="cls-9" d="M438.83,325.13a10.86,10.86,0,0,0,0,4.54,10.86,10.86,0,0,0,0-4.54Z"/><path class="cls-9" d="M438.83,316.06a10.86,10.86,0,0,0,0,4.54,10.86,10.86,0,0,0,0-4.54Z"/><path class="cls-9" d="M438.83,307a10.81,10.81,0,0,0,0,4.53,10.81,10.81,0,0,0,0-4.53Z"/><path class="cls-9" d="M438.83,297.93a10.81,10.81,0,0,0,0,4.53,10.81,10.81,0,0,0,0-4.53Z"/><path class="cls-9" d="M438.83,288.86a10.81,10.81,0,0,0,0,4.53,10.81,10.81,0,0,0,0-4.53Z"/><path class="cls-9" d="M438.83,279.79a10.86,10.86,0,0,0,0,4.54,10.86,10.86,0,0,0,0-4.54Z"/><path class="cls-9" d="M431.44,278.11a10.81,10.81,0,0,0,4.53,0,11.27,11.27,0,0,0-4.53,0Z"/><path class="cls-9" d="M422.37,278.11a5.64,5.64,0,0,0,2.27.24,5.57,5.57,0,0,0,2.26-.24,5.68,5.68,0,0,0-2.26-.23A5.75,5.75,0,0,0,422.37,278.11Z"/><path class="cls-9" d="M413.3,278.11a10.86,10.86,0,0,0,4.54,0,11.32,11.32,0,0,0-4.54,0Z"/><path class="cls-9" d="M404.23,278.11a10.86,10.86,0,0,0,4.54,0,11.32,11.32,0,0,0-4.54,0Z"/><path class="cls-9" d="M395.17,278.11a5.57,5.57,0,0,0,2.26.24,5.64,5.64,0,0,0,2.27-.24,5.75,5.75,0,0,0-2.27-.23A5.68,5.68,0,0,0,395.17,278.11Z"/><path class="cls-9" d="M386.1,278.11a10.81,10.81,0,0,0,4.53,0,11.27,11.27,0,0,0-4.53,0Z"/><path class="cls-9" d="M377,278.11a10.81,10.81,0,0,0,4.53,0,11.27,11.27,0,0,0-4.53,0Z"/><path class="cls-9" d="M368,278.11a5.64,5.64,0,0,0,2.27.24,5.57,5.57,0,0,0,2.26-.24,5.68,5.68,0,0,0-2.26-.23A5.75,5.75,0,0,0,368,278.11Z"/><path class="cls-9" d="M358.89,278.11a10.86,10.86,0,0,0,4.54,0,11.32,11.32,0,0,0-4.54,0Z"/><path class="cls-9" d="M349.82,278.11a10.86,10.86,0,0,0,4.54,0,11.32,11.32,0,0,0-4.54,0Z"/><path class="cls-9" d="M340.76,278.11a5.57,5.57,0,0,0,2.26.24,5.64,5.64,0,0,0,2.27-.24,5.75,5.75,0,0,0-2.27-.23A5.68,5.68,0,0,0,340.76,278.11Z"/><path class="cls-9" d="M331.69,278.11a10.81,10.81,0,0,0,4.53,0,11.27,11.27,0,0,0-4.53,0Z"/><path class="cls-9" d="M325.41,280.91a5.64,5.64,0,0,0,.24-2.27c0-.15,0-.3,0-.53l-.23.23c1,0,1.74-.11,1.74-.23a4.08,4.08,0,0,0-1.74-.23h-.23v.23c0,.23,0,.38,0,.53A5.64,5.64,0,0,0,325.41,280.91Z"/><path class="cls-9" d="M325.41,290a10.81,10.81,0,0,0,0-4.53,10.81,10.81,0,0,0,0,4.53Z"/><path class="cls-9" d="M325.41,299a10.81,10.81,0,0,0,0-4.53,10.81,10.81,0,0,0,0,4.53Z"/><path class="cls-9" d="M325.41,308.11a10.81,10.81,0,0,0,0-4.53,10.81,10.81,0,0,0,0,4.53Z"/><path class="cls-9" d="M325.41,317.18a10.86,10.86,0,0,0,0-4.54,10.86,10.86,0,0,0,0,4.54Z"/><path class="cls-9" d="M325.41,326.25a10.86,10.86,0,0,0,0-4.54,10.86,10.86,0,0,0,0,4.54Z"/><rect class="cls-9" x="325.41" y="257.46" width="113.42" height="16.35" transform="translate(764.24 531.28) rotate(-180)"/><polygon class="cls-6" points="354.08 379.79 327.32 350.59 442.57 350.59 472.08 378.9 354.08 379.79"/><polygon class="cls-3" points="726.21 910.83 739.46 959.83 696.39 963.76 687.34 917.11 726.21 910.83"/><path class="cls-9" d="M695.14,959.76c0,.16,2.42.11,6.31-.21s9.22-.9,15.11-1.66l15.05-2c3.85-.54,6.23-.91,6.21-1.07s-2.42-.1-6.3.23-9.23.92-15.11,1.67l-15.06,2C697.5,959.24,695.12,959.59,695.14,959.76Z"/><g class="cls-10"><polyline class="cls-8" points="739.46 959.83 696.39 963.76 695.69 960.16 738.22 954.76 739.42 959.34"/></g><path class="cls-9" d="M718.06,957.65c.27-.07-1.56-8.48-4.09-18.78s-4.81-18.6-5.08-18.53,1.56,8.47,4.1,18.77S717.79,957.71,718.06,957.65Z"/><path class="cls-9" d="M697.52,959.45c.26,0-1.37-3.52-.1-9.11a18.19,18.19,0,0,1,4.71-8.53,17.65,17.65,0,0,1,10.72-4.92,18.39,18.39,0,0,1,11.54,2.62,20.12,20.12,0,0,1,6.71,7.12c2.74,5,2.47,8.81,2.71,8.74,0,0,.06-.22.07-.65a14.22,14.22,0,0,0-.1-1.86,19.69,19.69,0,0,0-2-6.56,20.18,20.18,0,0,0-6.84-7.58,19,19,0,0,0-12.14-2.84,17.79,17.79,0,0,0-16,14.3,17,17,0,0,0,0,6.88,11.1,11.1,0,0,0,.53,1.8C697.39,959.26,697.49,959.46,697.52,959.45Z"/><path class="cls-3" d="M548.37,897.68l2.89,43.53s-43.33,14.38-43.58,22.48l84.65.61-1.71-68Z"/><g class="cls-10"><path class="cls-8" d="M577.31,936.75a3.46,3.46,0,0,1,2.51,3.87,3.32,3.32,0,0,1-3.82,2.52c-1.66-.36-3.15-2.49-2.63-4.11s2.73-2.94,4.25-2.18"/></g><g class="cls-10"><path class="cls-8" d="M592.33,964.3l-.17-6.86L510.4,959.7a5.86,5.86,0,0,0-3.15,4.6Z"/></g><path class="cls-9" d="M549.87,940.82c0,.41,2.1.54,4.17,1.81s3.21,3,3.59,2.79-.32-2.54-2.85-4S549.77,940.45,549.87,940.82Z"/><path class="cls-9" d="M541.11,944.76c-.08.4,1.73,1,3.18,2.76s1.92,3.54,2.33,3.51.6-2.38-1.25-4.46S541.11,944.37,541.11,944.76Z"/><path class="cls-9" d="M536.39,955.53c.38.08.89-2-.24-4.23s-3.09-3.07-3.25-2.72,1.06,1.52,2,3.36S536,955.51,536.39,955.53Z"/><path class="cls-9" d="M550.31,930.83c.19.37,2.07-.26,4.41-.17s4.18.77,4.38.41-1.59-1.78-4.34-1.85S550.1,930.51,550.31,930.83Z"/><g class="cls-11"><polygon points="548.95 906.3 549.46 914.06 591.03 912.42 590.87 905.42 548.95 906.3"/></g><path class="cls-9" d="M549.9,922c0,.18,1.64.38,4.23-.15a18.82,18.82,0,0,0,4.39-1.49,20.33,20.33,0,0,0,2.4-1.37,5.26,5.26,0,0,0,1.25-1,1.82,1.82,0,0,0,.12-2.21,2.3,2.3,0,0,0-1.84-.89,5.53,5.53,0,0,0-1.58.27,15.2,15.2,0,0,0-2.61,1,14.89,14.89,0,0,0-3.83,2.68c-1.91,1.88-2.53,3.44-2.39,3.52s1.11-1.2,3.06-2.76a17.58,17.58,0,0,1,3.72-2.24,15.5,15.5,0,0,1,2.41-.82c.89-.27,1.65-.3,1.89.1.09.14.1.2-.08.47a4.09,4.09,0,0,1-.91.76,24.19,24.19,0,0,1-2.2,1.35,23.81,23.81,0,0,1-4,1.69C551.47,921.65,549.88,921.81,549.9,922Z"/><path class="cls-9" d="M550.45,922.61c.15.06.92-1.45,1-4.13a13.56,13.56,0,0,0-.71-4.62,14.31,14.31,0,0,0-1.16-2.54,3.52,3.52,0,0,0-2.77-2.06,2,2,0,0,0-1.73,1.24,5.62,5.62,0,0,0-.39,1.57,9.31,9.31,0,0,0,.08,2.85,9.72,9.72,0,0,0,2,4.32c1.72,2.15,3.45,2.59,3.48,2.45s-1.33-1-2.66-3a9.82,9.82,0,0,1-1.46-3.94,8.75,8.75,0,0,1,0-2.45c.1-.9.42-1.64.76-1.56s1.15.64,1.52,1.35a13.55,13.55,0,0,1,1.12,2.26,15.22,15.22,0,0,1,.95,4.2C550.62,921,550.22,922.55,550.45,922.61Z"/><polygon class="cls-9" points="548.37 519.48 677.36 518.5 739.69 927.89 686.16 934.69 617.55 598.07 597.02 935.88 596.96 936.89 539.07 935.88 548.37 519.48"/><path class="cls-6" d="M607,552.65a20.63,20.63,0,0,0-2.67-.17l-7.76-.29-27.87-.79h-.53v.54c0,8.09-.05,17.13-.07,26.73v.26l.19.18,4.86,4.46,14.31,13.12.38.35.38-.34,19.08-17,.16-.14v-.21c-.1-8.13-.19-14.81-.24-19.61,0-2.19-.09-4-.12-5.29a13.18,13.18,0,0,0-.1-1.78,16.19,16.19,0,0,0-.1,2c0,1.37-.07,3.16-.12,5.39-.06,4.74-.14,11.32-.24,19.33l.16-.34-19.23,16.84h.76L574,582.69l-4.86-4.46.19.43c0-9.6-.05-18.64-.07-26.73l-.53.52,27.55.26h7.88l2.12,0A3.9,3.9,0,0,0,607,552.65Z"/><path class="cls-6" d="M667.75,550.88a17.85,17.85,0,0,0-2.38.12l-6.94.57-25.09,2.27-.52,0,.06.52c1,7.91,2,16.93,3.17,26.55l0,.24.19.15,5.56,4.44,13.72,10.92.45.35.35-.44,15-19,.12-.16,0-.19c-1.09-8-2-14.65-2.62-19.43-.32-2.16-.57-3.91-.76-5.24a12.46,12.46,0,0,0-.32-1.76,16.83,16.83,0,0,0,.13,2c.14,1.37.32,3.16.54,5.38.52,4.72,1.23,11.27,2.1,19.2l.1-.35L655.46,595.9l.8-.09-13.69-10.94L637,580.43l.22.39c-1.2-9.62-2.33-18.63-3.32-26.53l-.46.57,24.71-2.76,7-.84C666.82,551.05,667.71,550.92,667.75,550.88Z"/><path class="cls-6" d="M588.83,613c.08.14,2.29-1,5.85-2.84s8.45-4.42,13.92-7.15,10.46-5.1,14.08-6.82,5.85-2.81,5.79-3-2.41.67-6.13,2.2-8.78,3.8-14.27,6.53-10.34,5.43-13.8,7.48S588.75,612.88,588.83,613Z"/><path class="cls-6" d="M590.49,623c0,.12,1.79-.35,4.4-1.66a37.66,37.66,0,0,0,9.2-6.66,37.15,37.15,0,0,0,6.79-9.1c1.35-2.58,1.85-4.32,1.73-4.37-.35-.18-3.09,6.54-9.35,12.63S590.31,622.61,590.49,623Z"/><path class="cls-6" d="M554.07,741.25a7.51,7.51,0,0,0,.59,2.14,28.91,28.91,0,0,0,2.69,5.42,32.73,32.73,0,0,0,34.76,14.66,28.08,28.08,0,0,0,5.76-1.85,7.11,7.11,0,0,0,1.94-1.07c-.09-.21-2.91,1.24-7.86,2.1a33.55,33.55,0,0,1-33.9-14.3C555.22,744.2,554.29,741.16,554.07,741.25Z"/><path class="cls-6" d="M562.56,737.76c-.06.12,1.74,1.15,4.92,2.18a48.37,48.37,0,0,0,12.83,2.11,67.68,67.68,0,0,0,13-.76c3.28-.52,5.26-1.06,5.24-1.21-.06-.4-8.14,1.17-18.16.8a61,61,0,0,1-12.65-1.75C564.54,738.33,562.63,737.59,562.56,737.76Z"/><path class="cls-6" d="M658.46,740.2c-.09.09,1.49,1.8,4.49,4.06a52,52,0,0,0,27.14,10.11c3.74.25,6.06,0,6-.14s-2.31-.23-6-.69a61.52,61.52,0,0,1-26.74-10C660.36,741.53,658.59,740.05,658.46,740.2Z"/><path class="cls-6" d="M669.77,739.7c-.08.29,5.21,1.52,11.82,1s11.65-2.56,11.53-2.83S688,739,681.5,739.49,669.82,739.35,669.77,739.7Z"/><path class="cls-6" d="M618.32,600.9c-.06.13,2.1,1.25,5.8,2.62a80.49,80.49,0,0,0,30.23,4.84c3.93-.15,6.34-.54,6.33-.68s-2.44-.09-6.34-.15a109.6,109.6,0,0,1-15.15-1.31,108.5,108.5,0,0,1-14.81-3.49C620.66,601.58,618.39,600.73,618.32,600.9Z"/><path class="cls-6" d="M621.84,587.68c-.33,0-.61,1-.62,2.26s.23,2.27.56,2.27.6-1,.62-2.25S622.16,587.68,621.84,587.68Z"/><path class="cls-6" d="M621.83,578.61c-.33,0-.59,1-.58,2.27s.28,2.27.6,2.27.59-1,.58-2.27S622.15,578.61,621.83,578.61Z"/><path class="cls-6" d="M621.64,569.54c-.33,0-.56,1-.53,2.29s.32,2.25.64,2.25.57-1,.54-2.28S622,569.53,621.64,569.54Z"/><path class="cls-6" d="M621.28,560.48c-.33,0-.55,1-.49,2.29s.36,2.26.69,2.24.54-1,.49-2.29S621.6,560.47,621.28,560.48Z"/><path class="cls-6" d="M620.74,551.43c-.33,0-.52,1.05-.44,2.3s.4,2.24.73,2.22.52-1,.44-2.3S621.06,551.41,620.74,551.43Z"/><path class="cls-6" d="M620,542.39c-.33,0-.51,1.06-.4,2.31s.45,2.23.77,2.21.51-1.06.4-2.31S620.35,542.36,620,542.39Z"/><path class="cls-6" d="M619.31,535c-.32,0-.52.71-.44,1.51s.41,1.42.73,1.38.53-.7.44-1.5S619.63,535,619.31,535Z"/><path class="cls-6" d="M692.23,925.71c-.32.06-.38,1.11-.13,2.33s.7,2.18,1,2.11.38-1.11.14-2.34S692.55,925.64,692.23,925.71Z"/><path class="cls-6" d="M690.45,916.81c-.32.07-.38,1.12-.13,2.34s.7,2.17,1,2.11.38-1.11.14-2.34S690.77,916.75,690.45,916.81Z"/><path class="cls-6" d="M688.67,907.92c-.32.07-.38,1.11-.13,2.34s.7,2.17,1,2.11.38-1.11.14-2.34S689,907.86,688.67,907.92Z"/><path class="cls-6" d="M686.9,899c-.32.06-.38,1.11-.14,2.34s.7,2.17,1,2.11.38-1.12.14-2.34S687.21,899,686.9,899Z"/><path class="cls-6" d="M685.12,890.14c-.32.06-.38,1.11-.14,2.34s.71,2.17,1,2.1.38-1.11.13-2.34S685.44,890.07,685.12,890.14Z"/><path class="cls-6" d="M683.34,881.25c-.32.06-.38,1.11-.14,2.33s.71,2.18,1,2.11.38-1.11.13-2.34S683.66,881.18,683.34,881.25Z"/><path class="cls-6" d="M681.56,872.35c-.32.07-.38,1.11-.14,2.34s.71,2.17,1,2.11.38-1.11.13-2.34S681.88,872.29,681.56,872.35Z"/><path class="cls-6" d="M679.78,863.46c-.32.07-.38,1.11-.13,2.34s.7,2.17,1,2.11.38-1.11.13-2.34S680.1,863.4,679.78,863.46Z"/><path class="cls-6" d="M678,854.57c-.32.06-.38,1.11-.13,2.34s.7,2.17,1,2.11.38-1.12.13-2.34S678.32,854.51,678,854.57Z"/><path class="cls-6" d="M676.22,845.68c-.32.06-.38,1.11-.13,2.34s.7,2.17,1,2.1.38-1.11.14-2.34S676.54,845.61,676.22,845.68Z"/><path class="cls-6" d="M674.44,836.78c-.32.07-.38,1.12-.13,2.34s.7,2.17,1,2.11.38-1.11.14-2.34S674.76,836.72,674.44,836.78Z"/><path class="cls-6" d="M672.66,827.89c-.32.07-.38,1.11-.13,2.34s.7,2.17,1,2.11.38-1.11.14-2.34S673,827.83,672.66,827.89Z"/><path class="cls-6" d="M670.89,819c-.32.06-.38,1.11-.14,2.34s.71,2.17,1,2.11.38-1.11.14-2.34S671.21,818.94,670.89,819Z"/><path class="cls-6" d="M669.11,810.11c-.32.06-.38,1.11-.14,2.34s.71,2.17,1,2.1.38-1.11.13-2.33S669.43,810,669.11,810.11Z"/><path class="cls-6" d="M667.33,801.22c-.32.06-.38,1.11-.14,2.34s.71,2.17,1,2.1.38-1.11.13-2.34S667.65,801.15,667.33,801.22Z"/><path class="cls-6" d="M665.55,792.32c-.32.07-.38,1.12-.14,2.34s.71,2.17,1,2.11.38-1.11.13-2.34S665.87,792.26,665.55,792.32Z"/><path class="cls-6" d="M663.77,783.43c-.32.07-.38,1.11-.13,2.34s.7,2.17,1,2.11.38-1.11.13-2.34S664.09,783.37,663.77,783.43Z"/><path class="cls-6" d="M662,774.54c-.32.06-.38,1.11-.13,2.34s.7,2.17,1,2.11.38-1.12.13-2.34S662.31,774.48,662,774.54Z"/><path class="cls-6" d="M660.21,765.65c-.32.06-.38,1.11-.13,2.34s.7,2.17,1,2.1.38-1.11.14-2.34S660.53,765.58,660.21,765.65Z"/><path class="cls-6" d="M658.43,756.76c-.32.06-.38,1.11-.13,2.33s.7,2.18,1,2.11.38-1.11.14-2.34S658.75,756.69,658.43,756.76Z"/><path class="cls-6" d="M656.65,747.86c-.31.07-.38,1.11-.13,2.34s.7,2.17,1,2.11.38-1.11.14-2.34S657,747.8,656.65,747.86Z"/><path class="cls-6" d="M654.88,739c-.32.07-.38,1.11-.14,2.34s.71,2.17,1,2.11.38-1.11.13-2.34S655.2,738.91,654.88,739Z"/><path class="cls-6" d="M653.1,730.08c-.32.06-.38,1.11-.14,2.34s.71,2.17,1,2.11.38-1.12.13-2.34S653.42,730,653.1,730.08Z"/><path class="cls-6" d="M651.32,721.19c-.32.06-.38,1.11-.14,2.34s.71,2.17,1,2.1.38-1.11.13-2.34S651.64,721.12,651.32,721.19Z"/><path class="cls-6" d="M649.54,712.29c-.32.07-.38,1.12-.13,2.34s.7,2.17,1,2.11.38-1.11.13-2.34S649.86,712.23,649.54,712.29Z"/><path class="cls-6" d="M647.76,703.4c-.32.07-.38,1.11-.13,2.34s.7,2.17,1,2.11.38-1.11.13-2.34S648.08,703.34,647.76,703.4Z"/><path class="cls-6" d="M646,694.51c-.32.06-.38,1.11-.13,2.34s.7,2.17,1,2.11.38-1.11.14-2.34S646.3,694.45,646,694.51Z"/><path class="cls-6" d="M644.2,685.62c-.32.06-.38,1.11-.13,2.34s.7,2.17,1,2.1.38-1.11.14-2.33S644.52,685.55,644.2,685.62Z"/><path class="cls-6" d="M642.42,676.73c-.32.06-.38,1.11-.13,2.33s.7,2.18,1,2.11.38-1.11.14-2.34S642.74,676.66,642.42,676.73Z"/><path class="cls-6" d="M640.65,667.83c-.32.07-.38,1.12-.14,2.34s.7,2.17,1,2.11.38-1.11.14-2.34S641,667.77,640.65,667.83Z"/><path class="cls-6" d="M638.87,658.94c-.32.07-.38,1.11-.14,2.34s.71,2.17,1,2.11.38-1.11.13-2.34S639.19,658.88,638.87,658.94Z"/><path class="cls-6" d="M637.09,650.05c-.32.06-.38,1.11-.14,2.34s.71,2.17,1,2.11.38-1.11.13-2.34S637.41,650,637.09,650.05Z"/><path class="cls-6" d="M635.31,641.16c-.32.06-.38,1.11-.14,2.34s.71,2.17,1,2.1.38-1.11.13-2.34S635.63,641.09,635.31,641.16Z"/><path class="cls-6" d="M633.53,632.27c-.32.06-.38,1.11-.13,2.33s.7,2.18,1,2.11.38-1.11.13-2.34S633.85,632.2,633.53,632.27Z"/><path class="cls-6" d="M631.75,623.37c-.32.07-.38,1.11-.13,2.34s.7,2.17,1,2.11.38-1.11.13-2.34S632.07,623.31,631.75,623.37Z"/><path class="cls-6" d="M630,614.48c-.32.07-.38,1.11-.13,2.34s.7,2.17,1,2.11.38-1.11.14-2.34S630.29,614.42,630,614.48Z"/><path class="cls-6" d="M628.19,605.59c-.32.06-.38,1.11-.13,2.34s.7,2.17,1,2.11.38-1.12.14-2.34S628.51,605.53,628.19,605.59Z"/><path class="cls-12" d="M450.39,331.36s-15.1-22.62-15.5-22.82h0s-13.62-22.94-18.15-23-2.9,4.65,1.78,12.87c4.1,7.21,4.52,11.71,4.52,11.71l-11.19,6.75s-7.48-2.89-7.79,4.08c-.1,2.33.51,5.21,1.29,9.46.45,2.48,1.58,5.12,3.92,4.19a2.93,2.93,0,0,0,2-2.8c.14-4.12-.63-5.63-.1-5.64s8.05,21.62,8.05,21.62Z"/><path class="cls-12" d="M419.91,313.6a22.09,22.09,0,0,0-3.59-2.14,7.35,7.35,0,0,0-4.07-.63A3.59,3.59,0,0,0,410,312a3.66,3.66,0,0,0-.43,3.43,10.69,10.69,0,0,0,1.83,3.08"/><path class="cls-12" d="M425,309a19.87,19.87,0,0,0-3.41-2,7,7,0,0,0-3.86-.6,3.5,3.5,0,0,0-2.15,1.14,3.46,3.46,0,0,0-.4,3.23c.35,1.08,2.79,3.58,3.48,4.48"/><path class="cls-12" d="M445.13,318.59l21.81,46.65-24.05,24.57-12.53-34.76s-6.71,1.33-9.45-3.12c-3.05-5-7.07-19.34-7.07-19.34Z"/><path class="cls-13" d="M429.54,317.31c.24-.08-.3-3.2-2.58-6.45a11.39,11.39,0,0,0-3.73-3.31c-1.12-.61-1.89-.82-2-.68-.2.34,2.61,1.74,4.74,4.68S429.18,317.46,429.54,317.31Z"/><path class="cls-13" d="M405.35,317.5c.1.16.84-.25,2.11-.47a7.38,7.38,0,0,1,4.77.73,11.7,11.7,0,0,1,3.54,3.51c.78,1.09,1.29,1.78,1.44,1.7s-.11-.89-.73-2.13a9.51,9.51,0,0,0-3.69-4.12,7.07,7.07,0,0,0-5.54-.5C405.88,316.7,405.26,317.39,405.35,317.5Z"/><path class="cls-13" d="M413.47,310.92c-.06.35,2.69.82,5.12,3s3.64,4.69,4,4.53-.47-3-3.19-5.41a9.39,9.39,0,0,0-4-2.11C414.21,310.69,413.49,310.78,413.47,310.92Z"/><path class="cls-13" d="M408.11,321c-.31-.12-.88,1.69.26,3.5s3,2.09,3,1.76-1.18-1-2-2.39S408.44,321.05,408.11,321Z"/><path class="cls-12" d="M450.33,330.46s.76-13.92-2.6-17.07-13,.12-13,.12"/><path class="cls-13" d="M433.36,306.87c-.25.2,2,3.76,5,7.94s5.67,7.42,5.95,7.24-2-3.73-5-7.94S433.62,306.67,433.36,306.87Z"/><path class="cls-12" d="M668.35,319.55c-.34-1.86-.79-4-1.44-6.58a19.64,19.64,0,0,0-2.75-6.1c-1.52-2.26-3.67-5.19-5.34-6.43-2.07-1.53-1.2-4.77,1.14-4.76s8.13,4.09,12.12,11.35,6.33-5.56,7.27-10.22,4.51-18.93,6.17-19.78c2.44-1.24,4.22,1.14,3.17,5.77s-3.2,18.73-.71,19.11,6.89-23.4,6.89-23.4.13-5.24,3-4.9c5.21.61-1.38,25.54-2.07,27.9-.48,1.63,2.21,2.14,2.62.35s3.89-23.81,9.19-23.24c4.07.44-5.23,20.55-3.41,25.51s5.5-16,9.37-15.39c1.44.21,2.49.58-1.36,12.29-1.87,5.68-9.13,32.3-9.13,32.3l4.17,21.82-33.14,8.39Z"/><path class="cls-12" d="M626.45,201.34,626.78,310l-46.6,2.23-1.35-26.42s-16.55,3.28-20.82-12.09c-2.73-9.82-2-85.71-2-85.71Z"/><path class="cls-9" d="M549.83,195.62c7.34,2.1,8.94,14.1,8.94,14.1l11.51,25.43c5.86-4.59,13.74-4.33,15.23,6,1.08,7.44-8.18,9-8.18,9,5.39,9.17,9,16.59,16.89,25.32,8.5,9.44,13.26,10.39,22.47,10.55h10.16s5-16.14,14.18-56.51c10.21-44.79-42.74-39-52.56-50.45C572.48,160.38,526.69,189,549.83,195.62Z"/><path class="cls-9" d="M640.06,233.66c8.58-5.76,9.36-21.9,4.35-31.57A31.08,31.08,0,0,0,618,185.65a12.5,12.5,0,0,1-4.32-.49c-2-.78-3.32-2.69-4.64-4.4-7.67-10-15.21-19.77-29.51-19.77a16.27,16.27,0,0,0-9,2.23c-2,1.11-4.91,4.87-5.39,7.14a30.6,30.6,0,0,0-8.37-3,10.33,10.33,0,0,0-8.39,2c-2.22,2-3,5.62-1.32,8-4.82-.3-9.38,3.69-10.14,8.45s6.07,8.13,6.78,8.5c0,0-3.75,7.85,5.2,12.56,3.6,1.89,8.28-.39,8.81-.67"/><path class="cls-6" d="M606,244.11c-.31,0-.77,3.73.26,8.24s3,7.73,3.3,7.57-1.19-3.48-2.15-7.83S606.38,244.11,606,244.11Z"/><path class="cls-6" d="M600.4,238.78c-.31,0-.38,3.6.43,7.94s2.17,7.66,2.46,7.56-.51-3.53-1.3-7.78S600.74,238.76,600.4,238.78Z"/><path class="cls-6" d="M584.26,220.85c-.11.16,1.21,1.12,2.88,3.08a29.57,29.57,0,0,1,5,8.67,71.78,71.78,0,0,1,2.79,9.77c.58,2.55,1,4.13,1.15,4.1s0-1.65-.33-4.26a48.24,48.24,0,0,0-2.5-10,25.53,25.53,0,0,0-5.51-8.81C585.85,221.47,584.33,220.73,584.26,220.85Z"/><path class="cls-6" d="M577.73,208.64c-.13,0-.61,1.06-.9,2.94a19.62,19.62,0,0,0,.4,7.42,19.37,19.37,0,0,0,3.15,6.73c1.14,1.53,2.08,2.26,2.18,2.17.29-.23-2.86-3.73-4.18-9.19S578.1,208.7,577.73,208.64Z"/><path class="cls-6" d="M633.35,235.77c.16.29,1.59-.21,3.19-1.1s2.77-1.85,2.61-2.14-1.59.21-3.19,1.11S633.19,235.49,633.35,235.77Z"/><path class="cls-6" d="M610.84,224.18c-.31,0-.12,2.34,1.33,4.72s3.38,3.63,3.56,3.38-1.24-1.79-2.55-4S611.17,224.1,610.84,224.18Z"/><path class="cls-6" d="M603.91,220.46c-.3.07.19,2.82,2.08,5.64s4.22,4.36,4.39,4.11-1.66-2.09-3.41-4.76S604.24,220.36,603.91,220.46Z"/><path class="cls-6" d="M569.5,175c.09.09.88-.67,2.56-1.62a17.08,17.08,0,0,1,7.81-2,20.82,20.82,0,0,1,11.45,3.08,28.33,28.33,0,0,1,9.76,10.87,48.46,48.46,0,0,1,4,10.18l.19.68.62-.33a23.44,23.44,0,0,1,10.4-2.66,24.74,24.74,0,0,1,8.46,1.28c4.61,1.58,6.79,3.65,6.91,3.46a7,7,0,0,0-1.56-1.38,21.5,21.5,0,0,0-5.11-2.75,24.26,24.26,0,0,0-8.71-1.57,23.58,23.58,0,0,0-10.92,2.63l.81.35a47.94,47.94,0,0,0-4-10.45,28.85,28.85,0,0,0-10.23-11.24,21.37,21.37,0,0,0-12.06-3,16.67,16.67,0,0,0-8,2.46,13,13,0,0,0-1.79,1.42C569.66,174.74,569.48,174.94,569.5,175Z"/><path class="cls-6" d="M545,180.88c.08,0-1.3-.35-2.68,1.21a4.7,4.7,0,0,0-1.07,3.4,5.28,5.28,0,0,0,2.71,3.87,7.69,7.69,0,0,0,5.66.78,16.37,16.37,0,0,0,5.84-2.83,56.45,56.45,0,0,1,5.72-3.92,23.9,23.9,0,0,1,6.88-2.42,29.15,29.15,0,0,1,14.05,1,38.12,38.12,0,0,1,10.38,5.28c5.44,3.91,8.13,7.18,8.3,7a12,12,0,0,0-1.85-2.29,44.76,44.76,0,0,0-6-5.4,37.69,37.69,0,0,0-10.54-5.64,29.63,29.63,0,0,0-14.61-1.09,24.81,24.81,0,0,0-7.22,2.57,55.35,55.35,0,0,0-5.79,4,15.73,15.73,0,0,1-5.43,2.77,6.86,6.86,0,0,1-5-.55,4.6,4.6,0,0,1-2.47-3.23,4.25,4.25,0,0,1,.77-3A4.08,4.08,0,0,1,545,180.88Z"/><path class="cls-3" d="M673.81,315.27l57,101.82c3.32,8.63,1.4,19.9-4.39,27.06l1.17-1.69a24.28,24.28,0,0,1-18.9,9h-1.08a24.29,24.29,0,0,1-22.29-14.61L671.9,416.58Z"/><path class="cls-3" d="M550.48,308c11.17-5.7,22.2-7,34.24-7.34,14-.41,33.77-2.37,48.87-.76,0,0,46-1.42,46.24,34.26l-6.09,136.92,9.85,58.69-137.91,4.17,1-69.24c-1.7-36,1.93-87,1.93-87-2.12-19.37-12.71-28.09-14.22-40.68C533.05,325.84,540.49,313.08,550.48,308Z"/><path class="cls-9" d="M589.35,473.06a11.37,11.37,0,0,0,2,1.92,45.37,45.37,0,0,0,6.28,4.31,50.24,50.24,0,0,0,48.44.85,44.83,44.83,0,0,0,6.44-4.08,11.06,11.06,0,0,0,2.09-1.85c-.13-.19-3.19,2.4-8.9,5.19a52,52,0,0,1-47.66-.85C592.45,475.56,589.49,472.87,589.35,473.06Z"/><path class="cls-9" d="M679.83,334.14a5.39,5.39,0,0,0-.16,1.34c-.06,1-.14,2.3-.24,3.87-.16,3.52-.39,8.35-.66,14.24-.51,12.17-1.2,28.71-2,47s-1.57,34.82-2.12,47c-.3,5.89-.55,10.71-.73,14.23-.07,1.58-.12,2.86-.16,3.88a5.6,5.6,0,0,0,0,1.35,5.79,5.79,0,0,0,.21-1.34c.1-1,.23-2.28.39-3.85.32-3.36.68-8.22,1.1-14.22.82-12,1.7-28.63,2.47-47s1.32-35,1.62-47c.12-5.9.22-10.73.29-14.25,0-1.58,0-2.87,0-3.88A6.09,6.09,0,0,0,679.83,334.14Z"/><path class="cls-3" d="M708.74,346s5.22,15.32,6.14,17.39c0,0,12.88,37.23,17.08,62.37l-41.17-74.35C690.43,351.41,708.19,346.11,708.74,346Z"/><path class="cls-9" d="M688.46,341.47a4.75,4.75,0,0,0,.48,1.08l1.56,3c1.39,2.57,3.46,6.26,6.11,10.76,5.24,9,13.11,21.17,21.07,34.94,4,6.89,7.35,13.7,10.27,19.92s4.39,12.32,4,17.48a28.2,28.2,0,0,1-3.2,11.7c-1.36,2.56-2.49,3.74-2.39,3.82s.31-.26.83-.84a19.08,19.08,0,0,0,2-2.76,27.08,27.08,0,0,0,3.63-11.87c.51-5.3-1-11.66-3.85-18s-6.24-13.13-10.24-20.06c-8-13.83-16-25.86-21.37-34.79-2.65-4.34-4.82-7.91-6.43-10.56-.71-1.15-1.28-2.1-1.76-2.87A4.16,4.16,0,0,0,688.46,341.47Z"/><path class="cls-3" d="M434.79,379.49l31.91-20.87,20.14,34.89S514.76,354.7,527.45,332c11.67-20.93,26.78-26.57,34.06-28.08a3.23,3.23,0,0,1,3.87,3.53l-11,75.47C553,386.8,530,420.2,517.08,437c-21.48,28-53.13,10.1-61.83-9.53C448.35,411.89,437.61,388.22,434.79,379.49Z"/><path class="cls-9" d="M477.67,425c.16,0,.36-1.9.61-5a94.35,94.35,0,0,1,1.54-11.88A39.27,39.27,0,0,1,483.89,397c1.5-2.66,2.78-4.1,2.63-4.22s-1.61,1.16-3.34,3.78a33.41,33.41,0,0,0-4.52,11.33A64.58,64.58,0,0,0,477.44,420C477.41,423.08,477.51,425,477.67,425Z"/><path class="cls-9" d="M468.32,409.41c.19,0,.35-1.62,1.14-4.09a22.54,22.54,0,0,1,5.1-8.56c2.69-2.85,6-4.59,8.49-4.64s4,.89,4,.71-1.21-1.45-4-1.54-6.51,1.65-9.33,4.66a20.28,20.28,0,0,0-5.06,9.14C468,407.73,468.19,409.41,468.32,409.41Z"/><path class="cls-9" d="M563.59,313.2a4.91,4.91,0,0,0,.77.88l1,1,1.22,1.47a31.24,31.24,0,0,1,5.53,10.73,42,42,0,0,1,1.21,17.81,39.63,39.63,0,0,1-2.74,10.21,113.06,113.06,0,0,1-5.16,10.25c-7.82,13.72-15.86,25.59-21.67,34.15-2.89,4.14-5.25,7.55-7,10.07a37.89,37.89,0,0,0-2.54,3.73s.31-.27.81-.85,1.21-1.45,2.1-2.6c1.79-2.28,4.3-5.65,7.32-9.87,6-8.46,14.16-20.26,22-34.05a109.17,109.17,0,0,0,5.19-10.38,40,40,0,0,0,2.76-10.51,41.86,41.86,0,0,0-1.5-18.21,29.82,29.82,0,0,0-6-10.78l-1.32-1.42-1.07-.93A4,4,0,0,0,563.59,313.2Z"/><g class="cls-11"><path d="M599.2,479.21C589,474.56,581,463.92,580.69,453.15c-.07-2.9.44-6,2.51-8.06,3-3,8.09-2.42,11.84-.46,6.16,3.24,10.19,9.32,14.52,14.78s9.83,10.81,16.76,11.47c3,.28,5.95-.34,8.92-.67s6.12-.34,8.76,1.06,4.54,4.56,3.62,7.4c0,0-12.19,7.59-24.91,6.69A71.87,71.87,0,0,1,599.2,479.21Z"/></g><path class="cls-9" d="M563.51,513.72a4.35,4.35,0,0,0,1,.42l2.86,1c1.25.43,2.78.92,4.59,1.41s3.85,1.11,6.16,1.61a158.12,158.12,0,0,0,16.29,3,161.37,161.37,0,0,0,40.49.11,155.18,155.18,0,0,0,16.31-2.9c2.31-.48,4.35-1.09,6.16-1.57s3.35-1,4.6-1.38l2.87-1a4.12,4.12,0,0,0,1-.41,3.46,3.46,0,0,0-1,.18l-2.93.77c-1.26.35-2.81.77-4.63,1.18s-3.87,1-6.18,1.4c-4.58,1-10.1,1.9-16.25,2.63a172.85,172.85,0,0,1-40.24-.11c-6.15-.77-11.66-1.71-16.24-2.73-2.3-.44-4.35-1-6.17-1.43s-3.36-.85-4.62-1.21l-2.93-.78A3.7,3.7,0,0,0,563.51,513.72Z"/><path class="cls-9" d="M10.7,964.3c0,.33,221.42.59,494.48.59s494.53-.26,494.53-.59-221.36-.59-494.53-.59S10.7,964,10.7,964.3Z"/></svg>